G75*
%MOIN*%
%OFA0B0*%
%FSLAX25Y25*%
%IPPOS*%
%LPD*%
%AMOC8*
5,1,8,0,0,1.08239X$1,22.5*
%
%ADD10C,0.12611*%
%ADD11R,2.97244X0.39370*%
%ADD12R,0.07874X4.38976*%
%ADD13R,0.35433X0.07874*%
%ADD14R,0.07874X0.35433*%
%ADD15R,0.07874X4.64567*%
%ADD16R,0.07874X4.23228*%
%ADD17R,4.86220X0.07874*%
%ADD18R,2.57874X0.07874*%
%ADD19C,0.16548*%
%ADD20R,0.07493X0.48044*%
%ADD21R,0.08674X0.08674*%
%ADD22C,0.08674*%
%ADD23C,0.06800*%
D10*
X0021079Y0544370D03*
X0597850Y0544370D03*
D11*
X0437417Y0024291D03*
D12*
X0019110Y0303228D03*
D13*
X0032890Y0518780D03*
D14*
X0046669Y0532559D03*
D15*
X0278953Y0316024D03*
D16*
X0530921Y0336693D03*
D17*
X0285843Y0546339D03*
D18*
X0146079Y0087677D03*
D19*
X0045291Y0105394D03*
X0134858Y0105394D03*
X0225409Y0105394D03*
X0559268Y0136890D03*
X0590764Y0136890D03*
D20*
X0580134Y0091220D03*
X0570291Y0091220D03*
X0560449Y0091220D03*
X0550606Y0091220D03*
X0540764Y0091220D03*
X0530921Y0091220D03*
X0521079Y0091220D03*
X0511236Y0091220D03*
X0501394Y0091220D03*
X0491551Y0091220D03*
X0481709Y0091220D03*
X0471866Y0091220D03*
X0462024Y0091220D03*
X0452181Y0091220D03*
X0442339Y0091220D03*
X0432496Y0091220D03*
X0422654Y0091220D03*
X0412811Y0091220D03*
X0402969Y0091220D03*
X0393126Y0091220D03*
X0383283Y0091220D03*
X0373441Y0091220D03*
X0363598Y0091220D03*
X0353756Y0091220D03*
X0343913Y0091220D03*
X0334071Y0091220D03*
X0324228Y0091220D03*
X0314386Y0091220D03*
X0304543Y0091220D03*
X0294701Y0091220D03*
D21*
X0266827Y0099488D03*
X0597850Y0099488D03*
D22*
X0597850Y0121142D03*
X0266827Y0121142D03*
D23*
X0264780Y0133228D03*
X0254780Y0133228D03*
X0254780Y0143228D03*
X0264780Y0143228D03*
X0264780Y0153228D03*
X0264780Y0163228D03*
X0254780Y0163228D03*
X0254780Y0153228D03*
X0244780Y0153228D03*
X0244780Y0163228D03*
X0244780Y0173228D03*
X0254780Y0173228D03*
X0264780Y0173228D03*
X0264780Y0183228D03*
X0254780Y0183228D03*
X0254780Y0193228D03*
X0264780Y0193228D03*
X0264780Y0203228D03*
X0254780Y0203228D03*
X0254780Y0213228D03*
X0264780Y0213228D03*
X0264780Y0223228D03*
X0254780Y0223228D03*
X0254780Y0233228D03*
X0264780Y0233228D03*
X0264780Y0243228D03*
X0264780Y0253228D03*
X0254780Y0253228D03*
X0254780Y0243228D03*
X0244780Y0243228D03*
X0244780Y0253228D03*
X0244780Y0263228D03*
X0254780Y0263228D03*
X0264780Y0263228D03*
X0264780Y0273228D03*
X0254780Y0273228D03*
X0254780Y0283228D03*
X0264780Y0283228D03*
X0264780Y0293228D03*
X0254780Y0293228D03*
X0254780Y0303228D03*
X0264780Y0303228D03*
X0264780Y0313228D03*
X0254780Y0313228D03*
X0254780Y0323228D03*
X0264780Y0323228D03*
X0264780Y0333228D03*
X0254780Y0333228D03*
X0254780Y0343228D03*
X0264780Y0343228D03*
X0264780Y0353228D03*
X0254780Y0353228D03*
X0254780Y0363228D03*
X0264780Y0363228D03*
X0264780Y0373228D03*
X0264780Y0383228D03*
X0254780Y0383228D03*
X0254780Y0373228D03*
X0244780Y0373228D03*
X0244780Y0383228D03*
X0244780Y0393228D03*
X0254780Y0393228D03*
X0264780Y0393228D03*
X0264780Y0403228D03*
X0254780Y0403228D03*
X0254780Y0413228D03*
X0264780Y0413228D03*
X0264780Y0423228D03*
X0254780Y0423228D03*
X0254780Y0433228D03*
X0264780Y0433228D03*
X0264780Y0443228D03*
X0254780Y0443228D03*
X0254780Y0453228D03*
X0264780Y0453228D03*
X0264780Y0463228D03*
X0254780Y0463228D03*
X0254780Y0473228D03*
X0264780Y0473228D03*
X0264780Y0483228D03*
X0254780Y0483228D03*
X0254780Y0493228D03*
X0264780Y0493228D03*
X0264780Y0503228D03*
X0254780Y0503228D03*
X0254780Y0513228D03*
X0264780Y0513228D03*
X0264780Y0523228D03*
X0254780Y0523228D03*
X0254780Y0533228D03*
X0264780Y0533228D03*
X0244780Y0533228D03*
X0244780Y0523228D03*
X0244780Y0513228D03*
X0244780Y0503228D03*
X0244780Y0493228D03*
X0244780Y0483228D03*
X0244780Y0473228D03*
X0244780Y0463228D03*
X0244780Y0453228D03*
X0244780Y0443228D03*
X0244780Y0433228D03*
X0244780Y0423228D03*
X0244780Y0413228D03*
X0244780Y0403228D03*
X0234780Y0403228D03*
X0224780Y0403228D03*
X0224780Y0393228D03*
X0234780Y0393228D03*
X0234780Y0383228D03*
X0234780Y0373228D03*
X0224780Y0373228D03*
X0224780Y0383228D03*
X0214780Y0383228D03*
X0214780Y0373228D03*
X0204780Y0373228D03*
X0204780Y0383228D03*
X0204780Y0393228D03*
X0214780Y0393228D03*
X0214780Y0403228D03*
X0204780Y0403228D03*
X0204780Y0413228D03*
X0214780Y0413228D03*
X0214780Y0423228D03*
X0204780Y0423228D03*
X0204780Y0433228D03*
X0214780Y0433228D03*
X0224780Y0433228D03*
X0234780Y0433228D03*
X0234780Y0423228D03*
X0234780Y0413228D03*
X0224780Y0413228D03*
X0224780Y0423228D03*
X0224780Y0443228D03*
X0234780Y0443228D03*
X0234780Y0453228D03*
X0234780Y0463228D03*
X0224780Y0463228D03*
X0224780Y0453228D03*
X0214780Y0453228D03*
X0214780Y0463228D03*
X0204780Y0463228D03*
X0204780Y0453228D03*
X0204780Y0443228D03*
X0214780Y0443228D03*
X0194780Y0443228D03*
X0194780Y0433228D03*
X0194780Y0423228D03*
X0194780Y0413228D03*
X0194780Y0403228D03*
X0194780Y0393228D03*
X0194780Y0383228D03*
X0194780Y0373228D03*
X0194780Y0363228D03*
X0204780Y0363228D03*
X0214780Y0363228D03*
X0224780Y0363228D03*
X0234780Y0363228D03*
X0244780Y0363228D03*
X0244780Y0353228D03*
X0244780Y0343228D03*
X0244780Y0333228D03*
X0244780Y0323228D03*
X0244780Y0313228D03*
X0244780Y0303228D03*
X0244780Y0293228D03*
X0244780Y0283228D03*
X0244780Y0273228D03*
X0234780Y0273228D03*
X0224780Y0273228D03*
X0224780Y0263228D03*
X0234780Y0263228D03*
X0234780Y0253228D03*
X0234780Y0243228D03*
X0224780Y0243228D03*
X0224780Y0253228D03*
X0214780Y0253228D03*
X0214780Y0243228D03*
X0204780Y0243228D03*
X0204780Y0253228D03*
X0204780Y0263228D03*
X0214780Y0263228D03*
X0214780Y0273228D03*
X0204780Y0273228D03*
X0204780Y0283228D03*
X0214780Y0283228D03*
X0214780Y0293228D03*
X0204780Y0293228D03*
X0204780Y0303228D03*
X0214780Y0303228D03*
X0224780Y0303228D03*
X0234780Y0303228D03*
X0234780Y0293228D03*
X0234780Y0283228D03*
X0224780Y0283228D03*
X0224780Y0293228D03*
X0224780Y0313228D03*
X0234780Y0313228D03*
X0234780Y0323228D03*
X0234780Y0333228D03*
X0224780Y0333228D03*
X0224780Y0323228D03*
X0214780Y0323228D03*
X0214780Y0333228D03*
X0204780Y0333228D03*
X0204780Y0323228D03*
X0204780Y0313228D03*
X0214780Y0313228D03*
X0194780Y0313228D03*
X0194780Y0303228D03*
X0194780Y0293228D03*
X0194780Y0283228D03*
X0194780Y0273228D03*
X0194780Y0263228D03*
X0194780Y0253228D03*
X0194780Y0243228D03*
X0194780Y0233228D03*
X0204780Y0233228D03*
X0214780Y0233228D03*
X0224780Y0233228D03*
X0234780Y0233228D03*
X0244780Y0233228D03*
X0244780Y0223228D03*
X0244780Y0213228D03*
X0244780Y0203228D03*
X0244780Y0193228D03*
X0244780Y0183228D03*
X0234780Y0183228D03*
X0224780Y0183228D03*
X0224780Y0173228D03*
X0234780Y0173228D03*
X0234780Y0163228D03*
X0234780Y0153228D03*
X0224780Y0153228D03*
X0224780Y0163228D03*
X0214780Y0163228D03*
X0214780Y0153228D03*
X0204780Y0153228D03*
X0204780Y0163228D03*
X0204780Y0173228D03*
X0214780Y0173228D03*
X0214780Y0183228D03*
X0204780Y0183228D03*
X0204780Y0193228D03*
X0214780Y0193228D03*
X0214780Y0203228D03*
X0204780Y0203228D03*
X0204780Y0213228D03*
X0214780Y0213228D03*
X0224780Y0213228D03*
X0234780Y0213228D03*
X0234780Y0203228D03*
X0234780Y0193228D03*
X0224780Y0193228D03*
X0224780Y0203228D03*
X0224780Y0223228D03*
X0234780Y0223228D03*
X0214780Y0223228D03*
X0204780Y0223228D03*
X0194780Y0223228D03*
X0194780Y0213228D03*
X0194780Y0203228D03*
X0194780Y0193228D03*
X0194780Y0183228D03*
X0194780Y0173228D03*
X0194780Y0163228D03*
X0194780Y0153228D03*
X0194780Y0143228D03*
X0204780Y0143228D03*
X0214780Y0143228D03*
X0224780Y0143228D03*
X0234780Y0143228D03*
X0244780Y0143228D03*
X0244780Y0133228D03*
X0234780Y0133228D03*
X0224780Y0133228D03*
X0214780Y0133228D03*
X0204780Y0133228D03*
X0204780Y0123228D03*
X0214780Y0123228D03*
X0224622Y0123228D03*
X0234465Y0123228D03*
X0194780Y0123228D03*
X0194780Y0133228D03*
X0184780Y0133228D03*
X0174780Y0133228D03*
X0174780Y0123228D03*
X0184780Y0123228D03*
X0164780Y0123228D03*
X0154780Y0123228D03*
X0154780Y0133228D03*
X0164780Y0133228D03*
X0164780Y0143228D03*
X0154780Y0143228D03*
X0154780Y0153228D03*
X0164780Y0153228D03*
X0164780Y0163228D03*
X0154780Y0163228D03*
X0154780Y0173228D03*
X0164780Y0173228D03*
X0174780Y0173228D03*
X0184780Y0173228D03*
X0184780Y0163228D03*
X0184780Y0153228D03*
X0174780Y0153228D03*
X0174780Y0163228D03*
X0174780Y0143228D03*
X0184780Y0143228D03*
X0144780Y0143228D03*
X0144780Y0133228D03*
X0144780Y0123228D03*
X0134780Y0123228D03*
X0124780Y0123228D03*
X0114898Y0123228D03*
X0114898Y0133228D03*
X0124780Y0133228D03*
X0134780Y0133228D03*
X0134780Y0143228D03*
X0124780Y0143228D03*
X0114898Y0143228D03*
X0114898Y0153228D03*
X0114898Y0163228D03*
X0124780Y0163228D03*
X0134780Y0163228D03*
X0134780Y0153228D03*
X0124780Y0153228D03*
X0144780Y0153228D03*
X0144780Y0163228D03*
X0144780Y0173228D03*
X0144780Y0183228D03*
X0154780Y0183228D03*
X0164780Y0183228D03*
X0174780Y0183228D03*
X0184780Y0183228D03*
X0184780Y0193228D03*
X0184780Y0203228D03*
X0174780Y0203228D03*
X0174780Y0193228D03*
X0164780Y0193228D03*
X0164780Y0203228D03*
X0154780Y0203228D03*
X0154780Y0193228D03*
X0144780Y0193228D03*
X0144780Y0203228D03*
X0144780Y0213228D03*
X0154780Y0213228D03*
X0164780Y0213228D03*
X0174780Y0213228D03*
X0184780Y0213228D03*
X0184780Y0223228D03*
X0174780Y0223228D03*
X0174780Y0233228D03*
X0184780Y0233228D03*
X0184780Y0243228D03*
X0184780Y0253228D03*
X0174780Y0253228D03*
X0174780Y0243228D03*
X0164780Y0243228D03*
X0164780Y0253228D03*
X0154780Y0253228D03*
X0154780Y0243228D03*
X0154780Y0233228D03*
X0164780Y0233228D03*
X0164780Y0223228D03*
X0154780Y0223228D03*
X0144780Y0223228D03*
X0144780Y0233228D03*
X0144780Y0243228D03*
X0144780Y0253228D03*
X0144780Y0263228D03*
X0154780Y0263228D03*
X0164780Y0263228D03*
X0174780Y0263228D03*
X0184780Y0263228D03*
X0184780Y0273228D03*
X0174780Y0273228D03*
X0174780Y0283228D03*
X0184780Y0283228D03*
X0184780Y0293228D03*
X0174780Y0293228D03*
X0174780Y0303228D03*
X0184780Y0303228D03*
X0184780Y0313228D03*
X0174780Y0313228D03*
X0174780Y0323228D03*
X0184780Y0323228D03*
X0184780Y0333228D03*
X0174780Y0333228D03*
X0174780Y0343228D03*
X0184780Y0343228D03*
X0194780Y0343228D03*
X0204780Y0343228D03*
X0214780Y0343228D03*
X0224780Y0343228D03*
X0234780Y0343228D03*
X0234780Y0353228D03*
X0224780Y0353228D03*
X0214780Y0353228D03*
X0204780Y0353228D03*
X0194780Y0353228D03*
X0184780Y0353228D03*
X0174780Y0353228D03*
X0174780Y0363228D03*
X0184780Y0363228D03*
X0184780Y0373228D03*
X0184780Y0383228D03*
X0174780Y0383228D03*
X0174780Y0373228D03*
X0164780Y0373228D03*
X0164780Y0383228D03*
X0154780Y0383228D03*
X0154780Y0373228D03*
X0154780Y0363228D03*
X0164780Y0363228D03*
X0164780Y0353228D03*
X0154780Y0353228D03*
X0154780Y0343228D03*
X0164780Y0343228D03*
X0164780Y0333228D03*
X0164780Y0323228D03*
X0154780Y0323228D03*
X0154780Y0333228D03*
X0144780Y0333228D03*
X0144780Y0323228D03*
X0144780Y0313228D03*
X0154780Y0313228D03*
X0164780Y0313228D03*
X0164780Y0303228D03*
X0154780Y0303228D03*
X0154780Y0293228D03*
X0164780Y0293228D03*
X0164780Y0283228D03*
X0154780Y0283228D03*
X0154780Y0273228D03*
X0164780Y0273228D03*
X0144780Y0273228D03*
X0144780Y0283228D03*
X0144780Y0293228D03*
X0144780Y0303228D03*
X0134780Y0303228D03*
X0124780Y0303228D03*
X0114898Y0303228D03*
X0114898Y0293228D03*
X0114898Y0283228D03*
X0124780Y0283228D03*
X0134780Y0283228D03*
X0134780Y0293228D03*
X0124780Y0293228D03*
X0124780Y0273228D03*
X0134780Y0273228D03*
X0134780Y0263228D03*
X0124780Y0263228D03*
X0114898Y0263228D03*
X0114898Y0253228D03*
X0114898Y0243228D03*
X0124780Y0243228D03*
X0134780Y0243228D03*
X0134780Y0253228D03*
X0124780Y0253228D03*
X0124780Y0233228D03*
X0134780Y0233228D03*
X0134780Y0223228D03*
X0124780Y0223228D03*
X0114898Y0223228D03*
X0114898Y0213228D03*
X0124780Y0213228D03*
X0134780Y0213228D03*
X0134780Y0203228D03*
X0134780Y0193228D03*
X0124780Y0193228D03*
X0124780Y0203228D03*
X0114898Y0203228D03*
X0114898Y0193228D03*
X0114898Y0183228D03*
X0124780Y0183228D03*
X0134780Y0183228D03*
X0134780Y0173228D03*
X0124780Y0173228D03*
X0114898Y0173228D03*
X0104898Y0173228D03*
X0094898Y0173228D03*
X0094898Y0163228D03*
X0104898Y0163228D03*
X0104898Y0153228D03*
X0094898Y0153228D03*
X0094898Y0143228D03*
X0104898Y0143228D03*
X0104898Y0133228D03*
X0094898Y0133228D03*
X0094898Y0123228D03*
X0104898Y0123228D03*
X0084898Y0123228D03*
X0074898Y0123228D03*
X0074898Y0133228D03*
X0084898Y0133228D03*
X0084898Y0143228D03*
X0074898Y0143228D03*
X0074898Y0153228D03*
X0084898Y0153228D03*
X0084898Y0163228D03*
X0074898Y0163228D03*
X0074898Y0173228D03*
X0084898Y0173228D03*
X0084898Y0183228D03*
X0074898Y0183228D03*
X0074898Y0193228D03*
X0084898Y0193228D03*
X0084898Y0203228D03*
X0074898Y0203228D03*
X0074898Y0213228D03*
X0084898Y0213228D03*
X0094898Y0213228D03*
X0104898Y0213228D03*
X0104898Y0203228D03*
X0104898Y0193228D03*
X0094898Y0193228D03*
X0094898Y0203228D03*
X0094898Y0183228D03*
X0104898Y0183228D03*
X0064898Y0183228D03*
X0064898Y0173228D03*
X0064898Y0163228D03*
X0064898Y0153228D03*
X0064898Y0143228D03*
X0064898Y0133228D03*
X0064898Y0123228D03*
X0054898Y0123228D03*
X0045213Y0123228D03*
X0045213Y0133228D03*
X0054898Y0133228D03*
X0054898Y0143228D03*
X0045213Y0143228D03*
X0045213Y0153228D03*
X0054898Y0153228D03*
X0054898Y0163228D03*
X0045213Y0163228D03*
X0045213Y0173228D03*
X0054898Y0173228D03*
X0054898Y0183228D03*
X0045213Y0183228D03*
X0045213Y0193228D03*
X0054898Y0193228D03*
X0054898Y0203228D03*
X0045213Y0203228D03*
X0045213Y0213228D03*
X0054898Y0213228D03*
X0064898Y0213228D03*
X0064898Y0203228D03*
X0064898Y0193228D03*
X0035213Y0193228D03*
X0035213Y0203228D03*
X0035213Y0213228D03*
X0035213Y0223228D03*
X0045213Y0223228D03*
X0054898Y0223228D03*
X0064898Y0223228D03*
X0074898Y0223228D03*
X0084898Y0223228D03*
X0094898Y0223228D03*
X0104898Y0223228D03*
X0104898Y0233228D03*
X0094898Y0233228D03*
X0094898Y0243228D03*
X0104898Y0243228D03*
X0104898Y0253228D03*
X0094898Y0253228D03*
X0094898Y0263228D03*
X0104898Y0263228D03*
X0104898Y0273228D03*
X0094898Y0273228D03*
X0094898Y0283228D03*
X0104898Y0283228D03*
X0104898Y0293228D03*
X0094898Y0293228D03*
X0094898Y0303228D03*
X0104898Y0303228D03*
X0104898Y0313228D03*
X0094898Y0313228D03*
X0094898Y0323228D03*
X0104898Y0323228D03*
X0104898Y0333228D03*
X0094898Y0333228D03*
X0094898Y0343228D03*
X0104898Y0343228D03*
X0114898Y0343228D03*
X0124780Y0343228D03*
X0134780Y0343228D03*
X0144780Y0343228D03*
X0144780Y0353228D03*
X0144780Y0363228D03*
X0144780Y0373228D03*
X0144780Y0383228D03*
X0144780Y0393228D03*
X0154780Y0393228D03*
X0164780Y0393228D03*
X0174780Y0393228D03*
X0184780Y0393228D03*
X0184780Y0403228D03*
X0174780Y0403228D03*
X0174780Y0413228D03*
X0184780Y0413228D03*
X0184780Y0423228D03*
X0174780Y0423228D03*
X0174780Y0433228D03*
X0184780Y0433228D03*
X0184780Y0443228D03*
X0174780Y0443228D03*
X0174780Y0453228D03*
X0184780Y0453228D03*
X0184780Y0463228D03*
X0174780Y0463228D03*
X0174780Y0473228D03*
X0184780Y0473228D03*
X0194780Y0473228D03*
X0204780Y0473228D03*
X0214780Y0473228D03*
X0224780Y0473228D03*
X0234780Y0473228D03*
X0234780Y0483228D03*
X0224780Y0483228D03*
X0224780Y0493228D03*
X0234780Y0493228D03*
X0234780Y0503228D03*
X0224780Y0503228D03*
X0224780Y0513228D03*
X0234780Y0513228D03*
X0234780Y0523228D03*
X0224780Y0523228D03*
X0224780Y0533228D03*
X0234780Y0533228D03*
X0214780Y0533228D03*
X0204780Y0533228D03*
X0204780Y0523228D03*
X0214780Y0523228D03*
X0214780Y0513228D03*
X0204780Y0513228D03*
X0204780Y0503228D03*
X0214780Y0503228D03*
X0214780Y0493228D03*
X0204780Y0493228D03*
X0204780Y0483228D03*
X0214780Y0483228D03*
X0194780Y0483228D03*
X0194780Y0493228D03*
X0194780Y0503228D03*
X0194780Y0513228D03*
X0194780Y0523228D03*
X0194780Y0533228D03*
X0184780Y0533228D03*
X0174780Y0533228D03*
X0174780Y0523228D03*
X0184780Y0523228D03*
X0184780Y0513228D03*
X0174780Y0513228D03*
X0174780Y0503228D03*
X0184780Y0503228D03*
X0184780Y0493228D03*
X0174780Y0493228D03*
X0174780Y0483228D03*
X0184780Y0483228D03*
X0164780Y0483228D03*
X0154780Y0483228D03*
X0154780Y0473228D03*
X0164780Y0473228D03*
X0164780Y0463228D03*
X0164780Y0453228D03*
X0154780Y0453228D03*
X0154780Y0463228D03*
X0144780Y0463228D03*
X0144780Y0453228D03*
X0144780Y0443228D03*
X0154780Y0443228D03*
X0164780Y0443228D03*
X0164780Y0433228D03*
X0154780Y0433228D03*
X0154780Y0423228D03*
X0164780Y0423228D03*
X0164780Y0413228D03*
X0154780Y0413228D03*
X0154780Y0403228D03*
X0164780Y0403228D03*
X0144780Y0403228D03*
X0144780Y0413228D03*
X0144780Y0423228D03*
X0144780Y0433228D03*
X0134780Y0433228D03*
X0124780Y0433228D03*
X0114898Y0433228D03*
X0114898Y0423228D03*
X0114898Y0413228D03*
X0124780Y0413228D03*
X0134780Y0413228D03*
X0134780Y0423228D03*
X0124780Y0423228D03*
X0124780Y0403228D03*
X0134780Y0403228D03*
X0134780Y0393228D03*
X0124780Y0393228D03*
X0114898Y0393228D03*
X0114898Y0383228D03*
X0114898Y0373228D03*
X0124780Y0373228D03*
X0134780Y0373228D03*
X0134780Y0383228D03*
X0124780Y0383228D03*
X0124780Y0363228D03*
X0134780Y0363228D03*
X0134780Y0353228D03*
X0124780Y0353228D03*
X0114898Y0353228D03*
X0114898Y0363228D03*
X0104898Y0363228D03*
X0094898Y0363228D03*
X0094898Y0353228D03*
X0104898Y0353228D03*
X0084898Y0353228D03*
X0074898Y0353228D03*
X0074898Y0343228D03*
X0084898Y0343228D03*
X0084898Y0333228D03*
X0084898Y0323228D03*
X0074898Y0323228D03*
X0074898Y0333228D03*
X0064898Y0333228D03*
X0064898Y0323228D03*
X0064898Y0313228D03*
X0074898Y0313228D03*
X0084898Y0313228D03*
X0084898Y0303228D03*
X0074898Y0303228D03*
X0074898Y0293228D03*
X0084898Y0293228D03*
X0084898Y0283228D03*
X0074898Y0283228D03*
X0074898Y0273228D03*
X0084898Y0273228D03*
X0084898Y0263228D03*
X0074898Y0263228D03*
X0074898Y0253228D03*
X0084898Y0253228D03*
X0084898Y0243228D03*
X0074898Y0243228D03*
X0074898Y0233228D03*
X0084898Y0233228D03*
X0064898Y0233228D03*
X0064898Y0243228D03*
X0064898Y0253228D03*
X0064898Y0263228D03*
X0064898Y0273228D03*
X0064898Y0283228D03*
X0064898Y0293228D03*
X0064898Y0303228D03*
X0054898Y0303228D03*
X0045213Y0303228D03*
X0045213Y0293228D03*
X0054898Y0293228D03*
X0054898Y0283228D03*
X0045213Y0283228D03*
X0045213Y0273228D03*
X0054898Y0273228D03*
X0054898Y0263228D03*
X0045213Y0263228D03*
X0045213Y0253228D03*
X0054898Y0253228D03*
X0054898Y0243228D03*
X0045213Y0243228D03*
X0045213Y0233228D03*
X0054898Y0233228D03*
X0035213Y0233228D03*
X0035213Y0243228D03*
X0035213Y0253228D03*
X0035213Y0263228D03*
X0035213Y0273228D03*
X0035213Y0283228D03*
X0035213Y0293228D03*
X0035213Y0303228D03*
X0035213Y0313228D03*
X0045213Y0313228D03*
X0054898Y0313228D03*
X0054898Y0323228D03*
X0045213Y0323228D03*
X0045213Y0333228D03*
X0054898Y0333228D03*
X0054898Y0343228D03*
X0045213Y0343228D03*
X0045213Y0353228D03*
X0054898Y0353228D03*
X0064898Y0353228D03*
X0064898Y0343228D03*
X0064898Y0363228D03*
X0074898Y0363228D03*
X0084898Y0363228D03*
X0084898Y0373228D03*
X0084898Y0383228D03*
X0074898Y0383228D03*
X0074898Y0373228D03*
X0064898Y0373228D03*
X0064898Y0383228D03*
X0064898Y0393228D03*
X0074898Y0393228D03*
X0084898Y0393228D03*
X0094898Y0393228D03*
X0104898Y0393228D03*
X0104898Y0383228D03*
X0104898Y0373228D03*
X0094898Y0373228D03*
X0094898Y0383228D03*
X0094898Y0403228D03*
X0104898Y0403228D03*
X0114898Y0403228D03*
X0104898Y0413228D03*
X0104898Y0423228D03*
X0094898Y0423228D03*
X0094898Y0413228D03*
X0084898Y0413228D03*
X0084898Y0423228D03*
X0074898Y0423228D03*
X0074898Y0413228D03*
X0074898Y0403228D03*
X0084898Y0403228D03*
X0064898Y0403228D03*
X0064898Y0413228D03*
X0064898Y0423228D03*
X0064898Y0433228D03*
X0074898Y0433228D03*
X0084898Y0433228D03*
X0094898Y0433228D03*
X0104898Y0433228D03*
X0104898Y0443228D03*
X0094898Y0443228D03*
X0094898Y0453228D03*
X0104898Y0453228D03*
X0104898Y0463228D03*
X0094898Y0463228D03*
X0094898Y0473228D03*
X0104898Y0473228D03*
X0114898Y0473228D03*
X0124780Y0473228D03*
X0134780Y0473228D03*
X0144780Y0473228D03*
X0144780Y0483228D03*
X0144780Y0493228D03*
X0144780Y0503228D03*
X0154780Y0503228D03*
X0164780Y0503228D03*
X0164780Y0493228D03*
X0154780Y0493228D03*
X0154780Y0513228D03*
X0164780Y0513228D03*
X0164780Y0523228D03*
X0154780Y0523228D03*
X0154780Y0533228D03*
X0164780Y0533228D03*
X0144780Y0533228D03*
X0144780Y0523228D03*
X0144780Y0513228D03*
X0134780Y0513228D03*
X0124780Y0513228D03*
X0114898Y0513228D03*
X0114898Y0503228D03*
X0114898Y0493228D03*
X0124780Y0493228D03*
X0134780Y0493228D03*
X0134780Y0503228D03*
X0124780Y0503228D03*
X0124780Y0483228D03*
X0134780Y0483228D03*
X0114898Y0483228D03*
X0104898Y0483228D03*
X0094898Y0483228D03*
X0094898Y0493228D03*
X0104898Y0493228D03*
X0104898Y0503228D03*
X0094898Y0503228D03*
X0094898Y0513228D03*
X0104898Y0513228D03*
X0104898Y0523228D03*
X0094898Y0523228D03*
X0094898Y0533228D03*
X0104898Y0533228D03*
X0114898Y0533228D03*
X0124780Y0533228D03*
X0134780Y0533228D03*
X0134780Y0523228D03*
X0124780Y0523228D03*
X0114898Y0523228D03*
X0084898Y0523228D03*
X0074898Y0523228D03*
X0074898Y0513228D03*
X0084898Y0513228D03*
X0084898Y0503228D03*
X0084898Y0493228D03*
X0074898Y0493228D03*
X0074898Y0503228D03*
X0064898Y0503228D03*
X0064898Y0493228D03*
X0064898Y0483228D03*
X0074898Y0483228D03*
X0084898Y0483228D03*
X0084898Y0473228D03*
X0074898Y0473228D03*
X0074898Y0463228D03*
X0084898Y0463228D03*
X0084898Y0453228D03*
X0074898Y0453228D03*
X0074898Y0443228D03*
X0084898Y0443228D03*
X0064898Y0443228D03*
X0064898Y0453228D03*
X0064898Y0463228D03*
X0064898Y0473228D03*
X0054898Y0473228D03*
X0045213Y0473228D03*
X0045213Y0463228D03*
X0054898Y0463228D03*
X0054898Y0453228D03*
X0045213Y0453228D03*
X0045213Y0443228D03*
X0054898Y0443228D03*
X0054898Y0433228D03*
X0045213Y0433228D03*
X0045213Y0423228D03*
X0054898Y0423228D03*
X0054898Y0413228D03*
X0045213Y0413228D03*
X0045213Y0403228D03*
X0054898Y0403228D03*
X0054898Y0393228D03*
X0045213Y0393228D03*
X0045213Y0383228D03*
X0054898Y0383228D03*
X0054898Y0373228D03*
X0045213Y0373228D03*
X0045213Y0363228D03*
X0054898Y0363228D03*
X0035213Y0363228D03*
X0035213Y0353228D03*
X0035213Y0343228D03*
X0035213Y0333228D03*
X0035213Y0323228D03*
X0035213Y0373228D03*
X0035213Y0383228D03*
X0035213Y0393228D03*
X0035213Y0403228D03*
X0035213Y0413228D03*
X0035213Y0423228D03*
X0035213Y0433228D03*
X0035213Y0443228D03*
X0035213Y0453228D03*
X0035213Y0463228D03*
X0035213Y0473228D03*
X0035213Y0483228D03*
X0045213Y0483228D03*
X0054898Y0483228D03*
X0054898Y0493228D03*
X0045213Y0493228D03*
X0045213Y0503228D03*
X0054898Y0503228D03*
X0064898Y0513228D03*
X0064898Y0523228D03*
X0064898Y0533228D03*
X0074898Y0533228D03*
X0084898Y0533228D03*
X0035213Y0503228D03*
X0035213Y0493228D03*
X0114898Y0463228D03*
X0114898Y0453228D03*
X0124780Y0453228D03*
X0134780Y0453228D03*
X0134780Y0463228D03*
X0124780Y0463228D03*
X0124780Y0443228D03*
X0134780Y0443228D03*
X0114898Y0443228D03*
X0194780Y0453228D03*
X0194780Y0463228D03*
X0294425Y0463228D03*
X0294425Y0453228D03*
X0294425Y0443228D03*
X0294425Y0433228D03*
X0294425Y0423228D03*
X0294425Y0413228D03*
X0294425Y0403228D03*
X0294425Y0393228D03*
X0294425Y0383228D03*
X0294425Y0373228D03*
X0294425Y0363228D03*
X0294425Y0353228D03*
X0294425Y0343228D03*
X0294425Y0333228D03*
X0294425Y0323228D03*
X0294425Y0313228D03*
X0294425Y0303228D03*
X0294425Y0293228D03*
X0294425Y0283228D03*
X0294425Y0273228D03*
X0294425Y0263228D03*
X0294425Y0253228D03*
X0294425Y0243228D03*
X0294425Y0233228D03*
X0294425Y0223228D03*
X0294425Y0213228D03*
X0294425Y0203228D03*
X0294425Y0193228D03*
X0294425Y0183228D03*
X0294425Y0173228D03*
X0294425Y0163228D03*
X0294425Y0153228D03*
X0294425Y0143228D03*
X0294425Y0133228D03*
X0294425Y0123386D03*
X0304425Y0123386D03*
X0314425Y0123386D03*
X0314425Y0133228D03*
X0304425Y0133228D03*
X0304425Y0143228D03*
X0314425Y0143228D03*
X0324425Y0143228D03*
X0324425Y0133228D03*
X0324425Y0123386D03*
X0334780Y0123386D03*
X0344780Y0123386D03*
X0344780Y0133228D03*
X0334780Y0133228D03*
X0334780Y0143228D03*
X0344780Y0143228D03*
X0354780Y0143228D03*
X0364780Y0143228D03*
X0374780Y0143228D03*
X0384780Y0143228D03*
X0394780Y0143228D03*
X0404780Y0143228D03*
X0414780Y0143228D03*
X0424780Y0143228D03*
X0434780Y0143228D03*
X0444780Y0143228D03*
X0454780Y0143228D03*
X0464780Y0143228D03*
X0474780Y0143228D03*
X0484780Y0143228D03*
X0494780Y0143228D03*
X0504780Y0143228D03*
X0514780Y0143228D03*
X0514780Y0133228D03*
X0514780Y0123386D03*
X0504780Y0123386D03*
X0504780Y0133228D03*
X0494780Y0133228D03*
X0484780Y0133228D03*
X0484780Y0123386D03*
X0494780Y0123386D03*
X0474780Y0123386D03*
X0464780Y0123386D03*
X0464780Y0133228D03*
X0474780Y0133228D03*
X0454780Y0133228D03*
X0454780Y0123386D03*
X0444780Y0123386D03*
X0434780Y0123386D03*
X0434780Y0133228D03*
X0444780Y0133228D03*
X0424780Y0133228D03*
X0414780Y0133228D03*
X0414780Y0123386D03*
X0424780Y0123386D03*
X0404780Y0123386D03*
X0404780Y0133228D03*
X0394780Y0133228D03*
X0384780Y0133228D03*
X0384780Y0123386D03*
X0394780Y0123386D03*
X0374780Y0123386D03*
X0374780Y0133228D03*
X0364780Y0133228D03*
X0354780Y0133228D03*
X0354780Y0123386D03*
X0364780Y0123386D03*
X0364780Y0153228D03*
X0364780Y0163228D03*
X0354780Y0163228D03*
X0354780Y0153228D03*
X0344780Y0153228D03*
X0344780Y0163228D03*
X0334780Y0163228D03*
X0334780Y0153228D03*
X0324425Y0153228D03*
X0324425Y0163228D03*
X0314425Y0163228D03*
X0314425Y0153228D03*
X0304425Y0153228D03*
X0304425Y0163228D03*
X0304425Y0173228D03*
X0314425Y0173228D03*
X0324425Y0173228D03*
X0324425Y0183228D03*
X0314425Y0183228D03*
X0304425Y0183228D03*
X0304425Y0193228D03*
X0314425Y0193228D03*
X0314425Y0203228D03*
X0304425Y0203228D03*
X0304425Y0213228D03*
X0314425Y0213228D03*
X0324425Y0213228D03*
X0324425Y0203228D03*
X0324425Y0193228D03*
X0334780Y0193228D03*
X0344780Y0193228D03*
X0344780Y0203228D03*
X0334780Y0203228D03*
X0334780Y0213228D03*
X0344780Y0213228D03*
X0354780Y0213228D03*
X0364780Y0213228D03*
X0374780Y0213228D03*
X0384780Y0213228D03*
X0394780Y0213228D03*
X0404780Y0213228D03*
X0414780Y0213228D03*
X0424780Y0213228D03*
X0434780Y0213228D03*
X0444780Y0213228D03*
X0454780Y0213228D03*
X0464780Y0213228D03*
X0474780Y0213228D03*
X0484780Y0213228D03*
X0494780Y0213228D03*
X0504780Y0213228D03*
X0514780Y0213228D03*
X0514780Y0203228D03*
X0514780Y0193228D03*
X0514780Y0183228D03*
X0514780Y0173228D03*
X0514780Y0163228D03*
X0514780Y0153228D03*
X0504780Y0153228D03*
X0504780Y0163228D03*
X0504780Y0173228D03*
X0504780Y0183228D03*
X0504780Y0193228D03*
X0504780Y0203228D03*
X0494780Y0203228D03*
X0494780Y0193228D03*
X0484780Y0193228D03*
X0484780Y0203228D03*
X0474780Y0203228D03*
X0474780Y0193228D03*
X0464780Y0193228D03*
X0464780Y0203228D03*
X0454780Y0203228D03*
X0454780Y0193228D03*
X0454780Y0183228D03*
X0464780Y0183228D03*
X0474780Y0183228D03*
X0484780Y0183228D03*
X0494780Y0183228D03*
X0494780Y0173228D03*
X0484780Y0173228D03*
X0484780Y0163228D03*
X0494780Y0163228D03*
X0494780Y0153228D03*
X0484780Y0153228D03*
X0474780Y0153228D03*
X0474780Y0163228D03*
X0464780Y0163228D03*
X0464780Y0153228D03*
X0454780Y0153228D03*
X0454780Y0163228D03*
X0454780Y0173228D03*
X0464780Y0173228D03*
X0474780Y0173228D03*
X0444780Y0173228D03*
X0434780Y0173228D03*
X0434780Y0163228D03*
X0444780Y0163228D03*
X0444780Y0153228D03*
X0434780Y0153228D03*
X0424780Y0153228D03*
X0424780Y0163228D03*
X0414780Y0163228D03*
X0414780Y0153228D03*
X0404780Y0153228D03*
X0404780Y0163228D03*
X0404780Y0173228D03*
X0414780Y0173228D03*
X0424780Y0173228D03*
X0424780Y0183228D03*
X0414780Y0183228D03*
X0414780Y0193228D03*
X0424780Y0193228D03*
X0424780Y0203228D03*
X0414780Y0203228D03*
X0404780Y0203228D03*
X0404780Y0193228D03*
X0404780Y0183228D03*
X0394780Y0183228D03*
X0384780Y0183228D03*
X0384780Y0173228D03*
X0394780Y0173228D03*
X0394780Y0163228D03*
X0394780Y0153228D03*
X0384780Y0153228D03*
X0384780Y0163228D03*
X0374780Y0163228D03*
X0374780Y0153228D03*
X0374780Y0173228D03*
X0374780Y0183228D03*
X0374780Y0193228D03*
X0374780Y0203228D03*
X0384780Y0203228D03*
X0394780Y0203228D03*
X0394780Y0193228D03*
X0384780Y0193228D03*
X0364780Y0193228D03*
X0364780Y0203228D03*
X0354780Y0203228D03*
X0354780Y0193228D03*
X0354780Y0183228D03*
X0364780Y0183228D03*
X0364780Y0173228D03*
X0354780Y0173228D03*
X0344780Y0173228D03*
X0334780Y0173228D03*
X0334780Y0183228D03*
X0344780Y0183228D03*
X0344780Y0223228D03*
X0334780Y0223228D03*
X0334780Y0233228D03*
X0344780Y0233228D03*
X0354780Y0233228D03*
X0364780Y0233228D03*
X0374780Y0233228D03*
X0384780Y0233228D03*
X0394780Y0233228D03*
X0404780Y0233228D03*
X0414780Y0233228D03*
X0424780Y0233228D03*
X0434780Y0233228D03*
X0444780Y0233228D03*
X0454780Y0233228D03*
X0464780Y0233228D03*
X0474780Y0233228D03*
X0484780Y0233228D03*
X0494780Y0233228D03*
X0504780Y0233228D03*
X0514780Y0233228D03*
X0514780Y0223228D03*
X0504780Y0223228D03*
X0494780Y0223228D03*
X0484780Y0223228D03*
X0474780Y0223228D03*
X0464780Y0223228D03*
X0454780Y0223228D03*
X0444780Y0223228D03*
X0434780Y0223228D03*
X0424780Y0223228D03*
X0414780Y0223228D03*
X0404780Y0223228D03*
X0394780Y0223228D03*
X0384780Y0223228D03*
X0374780Y0223228D03*
X0364780Y0223228D03*
X0354780Y0223228D03*
X0354780Y0243228D03*
X0364780Y0243228D03*
X0364780Y0253228D03*
X0354780Y0253228D03*
X0354780Y0263228D03*
X0364780Y0263228D03*
X0374780Y0263228D03*
X0384780Y0263228D03*
X0394780Y0263228D03*
X0404780Y0263228D03*
X0414780Y0263228D03*
X0424780Y0263228D03*
X0434780Y0263228D03*
X0444780Y0263228D03*
X0454780Y0263228D03*
X0464780Y0263228D03*
X0474780Y0263228D03*
X0484780Y0263228D03*
X0494780Y0263228D03*
X0504780Y0263228D03*
X0514780Y0263228D03*
X0514780Y0253228D03*
X0514780Y0243228D03*
X0504780Y0243228D03*
X0504780Y0253228D03*
X0494780Y0253228D03*
X0494780Y0243228D03*
X0484780Y0243228D03*
X0484780Y0253228D03*
X0474780Y0253228D03*
X0474780Y0243228D03*
X0464780Y0243228D03*
X0464780Y0253228D03*
X0454780Y0253228D03*
X0454780Y0243228D03*
X0444780Y0243228D03*
X0444780Y0253228D03*
X0434780Y0253228D03*
X0434780Y0243228D03*
X0424780Y0243228D03*
X0424780Y0253228D03*
X0414780Y0253228D03*
X0414780Y0243228D03*
X0404780Y0243228D03*
X0404780Y0253228D03*
X0394780Y0253228D03*
X0394780Y0243228D03*
X0384780Y0243228D03*
X0384780Y0253228D03*
X0374780Y0253228D03*
X0374780Y0243228D03*
X0374780Y0273228D03*
X0384780Y0273228D03*
X0394780Y0273228D03*
X0404780Y0273228D03*
X0414780Y0273228D03*
X0424780Y0273228D03*
X0434780Y0273228D03*
X0444780Y0273228D03*
X0454780Y0273228D03*
X0464780Y0273228D03*
X0474780Y0273228D03*
X0484780Y0273228D03*
X0494780Y0273228D03*
X0504780Y0273228D03*
X0514780Y0273228D03*
X0514780Y0283228D03*
X0514780Y0293228D03*
X0514780Y0303228D03*
X0514780Y0313228D03*
X0514780Y0323228D03*
X0514780Y0333228D03*
X0514780Y0343228D03*
X0514780Y0353228D03*
X0514780Y0363228D03*
X0514780Y0373228D03*
X0514780Y0383228D03*
X0514780Y0393228D03*
X0514780Y0403228D03*
X0514780Y0413228D03*
X0514780Y0423228D03*
X0514780Y0433228D03*
X0514780Y0443228D03*
X0514780Y0453228D03*
X0514780Y0463228D03*
X0514780Y0473228D03*
X0514780Y0483228D03*
X0514780Y0493228D03*
X0514780Y0503228D03*
X0514780Y0513228D03*
X0514780Y0523228D03*
X0514780Y0533228D03*
X0504780Y0533228D03*
X0504780Y0523228D03*
X0504780Y0513228D03*
X0504780Y0503228D03*
X0504780Y0493228D03*
X0504780Y0483228D03*
X0504780Y0473228D03*
X0504780Y0463228D03*
X0504780Y0453228D03*
X0504780Y0443228D03*
X0504780Y0433228D03*
X0504780Y0423228D03*
X0504780Y0413228D03*
X0504780Y0403228D03*
X0504780Y0393228D03*
X0504780Y0383228D03*
X0504780Y0373228D03*
X0504780Y0363228D03*
X0504780Y0353228D03*
X0504780Y0343228D03*
X0504780Y0333228D03*
X0504780Y0323228D03*
X0504780Y0313228D03*
X0504780Y0303228D03*
X0504780Y0293228D03*
X0504780Y0283228D03*
X0494780Y0283228D03*
X0494780Y0293228D03*
X0484780Y0293228D03*
X0484780Y0283228D03*
X0474780Y0283228D03*
X0474780Y0293228D03*
X0464780Y0293228D03*
X0464780Y0283228D03*
X0454780Y0283228D03*
X0454780Y0293228D03*
X0454780Y0303228D03*
X0464780Y0303228D03*
X0474780Y0303228D03*
X0484780Y0303228D03*
X0494780Y0303228D03*
X0494780Y0313228D03*
X0484780Y0313228D03*
X0484780Y0323228D03*
X0494780Y0323228D03*
X0494780Y0333228D03*
X0484780Y0333228D03*
X0484780Y0343228D03*
X0494780Y0343228D03*
X0494780Y0353228D03*
X0484780Y0353228D03*
X0484780Y0363228D03*
X0494780Y0363228D03*
X0494780Y0373228D03*
X0494780Y0383228D03*
X0484780Y0383228D03*
X0484780Y0373228D03*
X0474780Y0373228D03*
X0474780Y0383228D03*
X0464780Y0383228D03*
X0464780Y0373228D03*
X0464780Y0363228D03*
X0474780Y0363228D03*
X0474780Y0353228D03*
X0464780Y0353228D03*
X0464780Y0343228D03*
X0474780Y0343228D03*
X0474780Y0333228D03*
X0474780Y0323228D03*
X0464780Y0323228D03*
X0464780Y0333228D03*
X0454780Y0333228D03*
X0454780Y0323228D03*
X0454780Y0313228D03*
X0464780Y0313228D03*
X0474780Y0313228D03*
X0444780Y0313228D03*
X0434780Y0313228D03*
X0434780Y0303228D03*
X0444780Y0303228D03*
X0444780Y0293228D03*
X0444780Y0283228D03*
X0434780Y0283228D03*
X0434780Y0293228D03*
X0424780Y0293228D03*
X0424780Y0283228D03*
X0414780Y0283228D03*
X0414780Y0293228D03*
X0414780Y0303228D03*
X0424780Y0303228D03*
X0424780Y0313228D03*
X0414780Y0313228D03*
X0414780Y0323228D03*
X0424780Y0323228D03*
X0424780Y0333228D03*
X0414780Y0333228D03*
X0414780Y0343228D03*
X0424780Y0343228D03*
X0434780Y0343228D03*
X0444780Y0343228D03*
X0454780Y0343228D03*
X0454780Y0353228D03*
X0454780Y0363228D03*
X0454780Y0373228D03*
X0454780Y0383228D03*
X0454780Y0393228D03*
X0464780Y0393228D03*
X0474780Y0393228D03*
X0484780Y0393228D03*
X0494780Y0393228D03*
X0494780Y0403228D03*
X0484780Y0403228D03*
X0484780Y0413228D03*
X0494780Y0413228D03*
X0494780Y0423228D03*
X0484780Y0423228D03*
X0484780Y0433228D03*
X0494780Y0433228D03*
X0494780Y0443228D03*
X0484780Y0443228D03*
X0484780Y0453228D03*
X0494780Y0453228D03*
X0494780Y0463228D03*
X0484780Y0463228D03*
X0484780Y0473228D03*
X0494780Y0473228D03*
X0494780Y0483228D03*
X0484780Y0483228D03*
X0484780Y0493228D03*
X0494780Y0493228D03*
X0494780Y0503228D03*
X0484780Y0503228D03*
X0484780Y0513228D03*
X0494780Y0513228D03*
X0494780Y0523228D03*
X0484780Y0523228D03*
X0484780Y0533228D03*
X0494780Y0533228D03*
X0474780Y0533228D03*
X0464780Y0533228D03*
X0464780Y0523228D03*
X0474780Y0523228D03*
X0474780Y0513228D03*
X0464780Y0513228D03*
X0464780Y0503228D03*
X0474780Y0503228D03*
X0474780Y0493228D03*
X0464780Y0493228D03*
X0464780Y0483228D03*
X0474780Y0483228D03*
X0474780Y0473228D03*
X0464780Y0473228D03*
X0464780Y0463228D03*
X0474780Y0463228D03*
X0474780Y0453228D03*
X0464780Y0453228D03*
X0464780Y0443228D03*
X0474780Y0443228D03*
X0474780Y0433228D03*
X0464780Y0433228D03*
X0464780Y0423228D03*
X0474780Y0423228D03*
X0474780Y0413228D03*
X0464780Y0413228D03*
X0464780Y0403228D03*
X0474780Y0403228D03*
X0454780Y0403228D03*
X0454780Y0413228D03*
X0454780Y0423228D03*
X0454780Y0433228D03*
X0454780Y0443228D03*
X0454780Y0453228D03*
X0454780Y0463228D03*
X0454780Y0473228D03*
X0454780Y0483228D03*
X0454780Y0493228D03*
X0454780Y0503228D03*
X0454780Y0513228D03*
X0454780Y0523228D03*
X0454780Y0533228D03*
X0444780Y0533228D03*
X0434780Y0533228D03*
X0434780Y0523228D03*
X0444780Y0523228D03*
X0444780Y0513228D03*
X0434780Y0513228D03*
X0434780Y0503228D03*
X0444780Y0503228D03*
X0444780Y0493228D03*
X0434780Y0493228D03*
X0434780Y0483228D03*
X0444780Y0483228D03*
X0444780Y0473228D03*
X0434780Y0473228D03*
X0434780Y0463228D03*
X0444780Y0463228D03*
X0444780Y0453228D03*
X0434780Y0453228D03*
X0434780Y0443228D03*
X0444780Y0443228D03*
X0444780Y0433228D03*
X0434780Y0433228D03*
X0434780Y0423228D03*
X0444780Y0423228D03*
X0444780Y0413228D03*
X0434780Y0413228D03*
X0434780Y0403228D03*
X0444780Y0403228D03*
X0444780Y0393228D03*
X0434780Y0393228D03*
X0434780Y0383228D03*
X0444780Y0383228D03*
X0444780Y0373228D03*
X0434780Y0373228D03*
X0434780Y0363228D03*
X0444780Y0363228D03*
X0444780Y0353228D03*
X0434780Y0353228D03*
X0424780Y0353228D03*
X0414780Y0353228D03*
X0414780Y0363228D03*
X0424780Y0363228D03*
X0424780Y0373228D03*
X0424780Y0383228D03*
X0414780Y0383228D03*
X0414780Y0373228D03*
X0404780Y0373228D03*
X0404780Y0383228D03*
X0404780Y0393228D03*
X0414780Y0393228D03*
X0424780Y0393228D03*
X0424780Y0403228D03*
X0414780Y0403228D03*
X0414780Y0413228D03*
X0424780Y0413228D03*
X0424780Y0423228D03*
X0414780Y0423228D03*
X0414780Y0433228D03*
X0424780Y0433228D03*
X0424780Y0443228D03*
X0414780Y0443228D03*
X0414780Y0453228D03*
X0424780Y0453228D03*
X0424780Y0463228D03*
X0414780Y0463228D03*
X0414780Y0473228D03*
X0424780Y0473228D03*
X0424780Y0483228D03*
X0414780Y0483228D03*
X0414780Y0493228D03*
X0424780Y0493228D03*
X0424780Y0503228D03*
X0414780Y0503228D03*
X0414780Y0513228D03*
X0424780Y0513228D03*
X0424780Y0523228D03*
X0414780Y0523228D03*
X0414780Y0533228D03*
X0424780Y0533228D03*
X0404780Y0533228D03*
X0404780Y0523228D03*
X0404780Y0513228D03*
X0404780Y0503228D03*
X0404780Y0493228D03*
X0404780Y0483228D03*
X0404780Y0473228D03*
X0404780Y0463228D03*
X0404780Y0453228D03*
X0404780Y0443228D03*
X0404780Y0433228D03*
X0404780Y0423228D03*
X0404780Y0413228D03*
X0404780Y0403228D03*
X0394780Y0403228D03*
X0384780Y0403228D03*
X0384780Y0393228D03*
X0394780Y0393228D03*
X0394780Y0383228D03*
X0394780Y0373228D03*
X0384780Y0373228D03*
X0384780Y0383228D03*
X0374780Y0383228D03*
X0374780Y0373228D03*
X0374780Y0363228D03*
X0384780Y0363228D03*
X0394780Y0363228D03*
X0404780Y0363228D03*
X0404780Y0353228D03*
X0404780Y0343228D03*
X0404780Y0333228D03*
X0404780Y0323228D03*
X0404780Y0313228D03*
X0404780Y0303228D03*
X0404780Y0293228D03*
X0404780Y0283228D03*
X0394780Y0283228D03*
X0394780Y0293228D03*
X0384780Y0293228D03*
X0384780Y0283228D03*
X0374780Y0283228D03*
X0374780Y0293228D03*
X0374780Y0303228D03*
X0384780Y0303228D03*
X0394780Y0303228D03*
X0394780Y0313228D03*
X0384780Y0313228D03*
X0384780Y0323228D03*
X0394780Y0323228D03*
X0394780Y0333228D03*
X0384780Y0333228D03*
X0384780Y0343228D03*
X0394780Y0343228D03*
X0394780Y0353228D03*
X0384780Y0353228D03*
X0374780Y0353228D03*
X0374780Y0343228D03*
X0374780Y0333228D03*
X0374780Y0323228D03*
X0374780Y0313228D03*
X0364780Y0313228D03*
X0354780Y0313228D03*
X0354780Y0303228D03*
X0364780Y0303228D03*
X0364780Y0293228D03*
X0364780Y0283228D03*
X0354780Y0283228D03*
X0354780Y0293228D03*
X0344780Y0293228D03*
X0344780Y0283228D03*
X0334780Y0283228D03*
X0334780Y0293228D03*
X0334780Y0303228D03*
X0344780Y0303228D03*
X0344780Y0313228D03*
X0334780Y0313228D03*
X0334780Y0323228D03*
X0344780Y0323228D03*
X0344780Y0333228D03*
X0334780Y0333228D03*
X0334780Y0343228D03*
X0344780Y0343228D03*
X0354780Y0343228D03*
X0364780Y0343228D03*
X0364780Y0333228D03*
X0364780Y0323228D03*
X0354780Y0323228D03*
X0354780Y0333228D03*
X0354780Y0353228D03*
X0364780Y0353228D03*
X0364780Y0363228D03*
X0354780Y0363228D03*
X0354780Y0373228D03*
X0364780Y0373228D03*
X0364780Y0383228D03*
X0354780Y0383228D03*
X0354780Y0393228D03*
X0364780Y0393228D03*
X0374780Y0393228D03*
X0374780Y0403228D03*
X0374780Y0413228D03*
X0374780Y0423228D03*
X0384780Y0423228D03*
X0394780Y0423228D03*
X0394780Y0413228D03*
X0384780Y0413228D03*
X0384780Y0433228D03*
X0394780Y0433228D03*
X0394780Y0443228D03*
X0384780Y0443228D03*
X0384780Y0453228D03*
X0394780Y0453228D03*
X0394780Y0463228D03*
X0384780Y0463228D03*
X0384780Y0473228D03*
X0394780Y0473228D03*
X0394780Y0483228D03*
X0384780Y0483228D03*
X0384780Y0493228D03*
X0394780Y0493228D03*
X0394780Y0503228D03*
X0384780Y0503228D03*
X0384780Y0513228D03*
X0394780Y0513228D03*
X0394780Y0523228D03*
X0384780Y0523228D03*
X0384780Y0533228D03*
X0394780Y0533228D03*
X0374780Y0533228D03*
X0374780Y0523228D03*
X0374780Y0513228D03*
X0374780Y0503228D03*
X0374780Y0493228D03*
X0374780Y0483228D03*
X0374780Y0473228D03*
X0374780Y0463228D03*
X0374780Y0453228D03*
X0374780Y0443228D03*
X0374780Y0433228D03*
X0364780Y0433228D03*
X0354780Y0433228D03*
X0354780Y0423228D03*
X0364780Y0423228D03*
X0364780Y0413228D03*
X0354780Y0413228D03*
X0354780Y0403228D03*
X0364780Y0403228D03*
X0344780Y0403228D03*
X0334780Y0403228D03*
X0334780Y0393228D03*
X0344780Y0393228D03*
X0344780Y0383228D03*
X0344780Y0373228D03*
X0334780Y0373228D03*
X0334780Y0383228D03*
X0324425Y0383228D03*
X0324425Y0373228D03*
X0324425Y0363228D03*
X0324425Y0353228D03*
X0324425Y0343228D03*
X0324425Y0333228D03*
X0324425Y0323228D03*
X0324425Y0313228D03*
X0324425Y0303228D03*
X0324425Y0293228D03*
X0324425Y0283228D03*
X0324425Y0273228D03*
X0324425Y0263228D03*
X0324425Y0253228D03*
X0324425Y0243228D03*
X0324425Y0233228D03*
X0324425Y0223228D03*
X0314425Y0223228D03*
X0304425Y0223228D03*
X0304425Y0233228D03*
X0314425Y0233228D03*
X0314425Y0243228D03*
X0304425Y0243228D03*
X0304425Y0253228D03*
X0314425Y0253228D03*
X0314425Y0263228D03*
X0304425Y0263228D03*
X0304425Y0273228D03*
X0314425Y0273228D03*
X0314425Y0283228D03*
X0304425Y0283228D03*
X0304425Y0293228D03*
X0314425Y0293228D03*
X0314425Y0303228D03*
X0304425Y0303228D03*
X0304425Y0313228D03*
X0314425Y0313228D03*
X0314425Y0323228D03*
X0304425Y0323228D03*
X0304425Y0333228D03*
X0314425Y0333228D03*
X0314425Y0343228D03*
X0304425Y0343228D03*
X0304425Y0353228D03*
X0314425Y0353228D03*
X0314425Y0363228D03*
X0304425Y0363228D03*
X0304425Y0373228D03*
X0314425Y0373228D03*
X0314425Y0383228D03*
X0304425Y0383228D03*
X0304425Y0393228D03*
X0314425Y0393228D03*
X0324425Y0393228D03*
X0324425Y0403228D03*
X0314425Y0403228D03*
X0304425Y0403228D03*
X0304425Y0413228D03*
X0314425Y0413228D03*
X0314425Y0423228D03*
X0304425Y0423228D03*
X0304425Y0433228D03*
X0314425Y0433228D03*
X0324425Y0433228D03*
X0324425Y0423228D03*
X0324425Y0413228D03*
X0334780Y0413228D03*
X0344780Y0413228D03*
X0344780Y0423228D03*
X0334780Y0423228D03*
X0334780Y0433228D03*
X0344780Y0433228D03*
X0344780Y0443228D03*
X0334780Y0443228D03*
X0334780Y0453228D03*
X0344780Y0453228D03*
X0344780Y0463228D03*
X0334780Y0463228D03*
X0334780Y0473228D03*
X0344780Y0473228D03*
X0354780Y0473228D03*
X0364780Y0473228D03*
X0364780Y0463228D03*
X0364780Y0453228D03*
X0354780Y0453228D03*
X0354780Y0463228D03*
X0354780Y0443228D03*
X0364780Y0443228D03*
X0324425Y0443228D03*
X0314425Y0443228D03*
X0304425Y0443228D03*
X0304425Y0453228D03*
X0314425Y0453228D03*
X0314425Y0463228D03*
X0304425Y0463228D03*
X0304425Y0473228D03*
X0314425Y0473228D03*
X0324425Y0473228D03*
X0324425Y0463228D03*
X0324425Y0453228D03*
X0324425Y0483228D03*
X0314425Y0483228D03*
X0304425Y0483228D03*
X0294425Y0483228D03*
X0294425Y0473228D03*
X0294425Y0493228D03*
X0294425Y0503228D03*
X0304425Y0503228D03*
X0304425Y0493228D03*
X0314425Y0493228D03*
X0314425Y0503228D03*
X0324425Y0503228D03*
X0324425Y0493228D03*
X0334780Y0493228D03*
X0344780Y0493228D03*
X0344780Y0503228D03*
X0334780Y0503228D03*
X0334780Y0513228D03*
X0344780Y0513228D03*
X0354780Y0513228D03*
X0364780Y0513228D03*
X0364780Y0503228D03*
X0364780Y0493228D03*
X0354780Y0493228D03*
X0354780Y0503228D03*
X0354780Y0483228D03*
X0364780Y0483228D03*
X0344780Y0483228D03*
X0334780Y0483228D03*
X0324425Y0513228D03*
X0314425Y0513228D03*
X0304425Y0513228D03*
X0294425Y0513228D03*
X0294425Y0523228D03*
X0304425Y0523228D03*
X0314425Y0523228D03*
X0324425Y0523228D03*
X0324425Y0533228D03*
X0314425Y0533228D03*
X0304425Y0533228D03*
X0294425Y0533228D03*
X0334780Y0533228D03*
X0344780Y0533228D03*
X0354780Y0533228D03*
X0364780Y0533228D03*
X0364780Y0523228D03*
X0354780Y0523228D03*
X0344780Y0523228D03*
X0334780Y0523228D03*
X0334780Y0363228D03*
X0344780Y0363228D03*
X0344780Y0353228D03*
X0334780Y0353228D03*
X0334780Y0273228D03*
X0344780Y0273228D03*
X0354780Y0273228D03*
X0364780Y0273228D03*
X0344780Y0263228D03*
X0334780Y0263228D03*
X0334780Y0253228D03*
X0344780Y0253228D03*
X0344780Y0243228D03*
X0334780Y0243228D03*
X0434780Y0203228D03*
X0444780Y0203228D03*
X0444780Y0193228D03*
X0434780Y0193228D03*
X0434780Y0183228D03*
X0444780Y0183228D03*
X0544780Y0183228D03*
X0554780Y0183228D03*
X0564780Y0183228D03*
X0574780Y0183228D03*
X0584780Y0183228D03*
X0594465Y0183228D03*
X0604465Y0183228D03*
X0604465Y0173228D03*
X0594465Y0173228D03*
X0584780Y0173228D03*
X0584780Y0163228D03*
X0584780Y0153228D03*
X0594465Y0153228D03*
X0604465Y0153228D03*
X0604465Y0163228D03*
X0594465Y0163228D03*
X0574780Y0163228D03*
X0574780Y0153228D03*
X0564780Y0153228D03*
X0564780Y0163228D03*
X0564780Y0173228D03*
X0574780Y0173228D03*
X0554780Y0173228D03*
X0544780Y0173228D03*
X0544780Y0163228D03*
X0554780Y0163228D03*
X0554780Y0153228D03*
X0544780Y0153228D03*
X0544780Y0193228D03*
X0554780Y0193228D03*
X0554780Y0203228D03*
X0544780Y0203228D03*
X0544780Y0213228D03*
X0554780Y0213228D03*
X0564780Y0213228D03*
X0574780Y0213228D03*
X0584780Y0213228D03*
X0594465Y0213228D03*
X0604465Y0213228D03*
X0604465Y0203228D03*
X0604465Y0193228D03*
X0594465Y0193228D03*
X0594465Y0203228D03*
X0584780Y0203228D03*
X0584780Y0193228D03*
X0574780Y0193228D03*
X0574780Y0203228D03*
X0564780Y0203228D03*
X0564780Y0193228D03*
X0564780Y0223228D03*
X0574780Y0223228D03*
X0584780Y0223228D03*
X0594465Y0223228D03*
X0604465Y0223228D03*
X0604465Y0233228D03*
X0594465Y0233228D03*
X0584780Y0233228D03*
X0584780Y0243228D03*
X0584780Y0253228D03*
X0594465Y0253228D03*
X0604465Y0253228D03*
X0604465Y0243228D03*
X0594465Y0243228D03*
X0594465Y0263228D03*
X0604465Y0263228D03*
X0604465Y0273228D03*
X0594465Y0273228D03*
X0584780Y0273228D03*
X0584780Y0263228D03*
X0574780Y0263228D03*
X0564780Y0263228D03*
X0564780Y0253228D03*
X0574780Y0253228D03*
X0574780Y0243228D03*
X0564780Y0243228D03*
X0564780Y0233228D03*
X0574780Y0233228D03*
X0554780Y0233228D03*
X0544780Y0233228D03*
X0544780Y0223228D03*
X0554780Y0223228D03*
X0554780Y0243228D03*
X0554780Y0253228D03*
X0544780Y0253228D03*
X0544780Y0243228D03*
X0544780Y0263228D03*
X0554780Y0263228D03*
X0554780Y0273228D03*
X0544780Y0273228D03*
X0544780Y0283228D03*
X0554780Y0283228D03*
X0554780Y0293228D03*
X0544780Y0293228D03*
X0544780Y0303228D03*
X0554780Y0303228D03*
X0564780Y0303228D03*
X0574780Y0303228D03*
X0584780Y0303228D03*
X0594465Y0303228D03*
X0604465Y0303228D03*
X0604465Y0293228D03*
X0604465Y0283228D03*
X0594465Y0283228D03*
X0594465Y0293228D03*
X0584780Y0293228D03*
X0584780Y0283228D03*
X0574780Y0283228D03*
X0574780Y0293228D03*
X0564780Y0293228D03*
X0564780Y0283228D03*
X0564780Y0273228D03*
X0574780Y0273228D03*
X0574780Y0313228D03*
X0564780Y0313228D03*
X0564780Y0323228D03*
X0574780Y0323228D03*
X0574780Y0333228D03*
X0564780Y0333228D03*
X0564780Y0343228D03*
X0574780Y0343228D03*
X0584780Y0343228D03*
X0594465Y0343228D03*
X0604465Y0343228D03*
X0604465Y0333228D03*
X0604465Y0323228D03*
X0594465Y0323228D03*
X0594465Y0333228D03*
X0584780Y0333228D03*
X0584780Y0323228D03*
X0584780Y0313228D03*
X0594465Y0313228D03*
X0604465Y0313228D03*
X0604465Y0353228D03*
X0594465Y0353228D03*
X0584780Y0353228D03*
X0584780Y0363228D03*
X0594465Y0363228D03*
X0604465Y0363228D03*
X0604465Y0373228D03*
X0604465Y0383228D03*
X0594465Y0383228D03*
X0594465Y0373228D03*
X0584780Y0373228D03*
X0584780Y0383228D03*
X0584780Y0393228D03*
X0594465Y0393228D03*
X0604465Y0393228D03*
X0604465Y0403228D03*
X0594465Y0403228D03*
X0584780Y0403228D03*
X0584780Y0413228D03*
X0584780Y0423228D03*
X0594465Y0423228D03*
X0604465Y0423228D03*
X0604465Y0413228D03*
X0594465Y0413228D03*
X0594465Y0433228D03*
X0604465Y0433228D03*
X0604465Y0443228D03*
X0594465Y0443228D03*
X0584780Y0443228D03*
X0584780Y0433228D03*
X0574780Y0433228D03*
X0564780Y0433228D03*
X0564780Y0423228D03*
X0574780Y0423228D03*
X0574780Y0413228D03*
X0564780Y0413228D03*
X0564780Y0403228D03*
X0574780Y0403228D03*
X0574780Y0393228D03*
X0564780Y0393228D03*
X0564780Y0383228D03*
X0574780Y0383228D03*
X0574780Y0373228D03*
X0564780Y0373228D03*
X0564780Y0363228D03*
X0574780Y0363228D03*
X0574780Y0353228D03*
X0564780Y0353228D03*
X0554780Y0353228D03*
X0544780Y0353228D03*
X0544780Y0343228D03*
X0554780Y0343228D03*
X0554780Y0333228D03*
X0554780Y0323228D03*
X0544780Y0323228D03*
X0544780Y0333228D03*
X0544780Y0313228D03*
X0554780Y0313228D03*
X0554780Y0363228D03*
X0544780Y0363228D03*
X0544780Y0373228D03*
X0554780Y0373228D03*
X0554780Y0383228D03*
X0544780Y0383228D03*
X0544780Y0393228D03*
X0554780Y0393228D03*
X0554780Y0403228D03*
X0544780Y0403228D03*
X0544780Y0413228D03*
X0554780Y0413228D03*
X0554780Y0423228D03*
X0544780Y0423228D03*
X0544780Y0433228D03*
X0554780Y0433228D03*
X0554780Y0443228D03*
X0544780Y0443228D03*
X0544780Y0453228D03*
X0554780Y0453228D03*
X0554780Y0463228D03*
X0544780Y0463228D03*
X0544780Y0473228D03*
X0554780Y0473228D03*
X0564780Y0473228D03*
X0574780Y0473228D03*
X0584780Y0473228D03*
X0594465Y0473228D03*
X0604465Y0473228D03*
X0604465Y0463228D03*
X0604465Y0453228D03*
X0594465Y0453228D03*
X0594465Y0463228D03*
X0584780Y0463228D03*
X0584780Y0453228D03*
X0574780Y0453228D03*
X0574780Y0463228D03*
X0564780Y0463228D03*
X0564780Y0453228D03*
X0564780Y0443228D03*
X0574780Y0443228D03*
X0574780Y0483228D03*
X0564780Y0483228D03*
X0564780Y0493228D03*
X0564780Y0503228D03*
X0554780Y0503228D03*
X0554780Y0493228D03*
X0544780Y0493228D03*
X0544780Y0503228D03*
X0544780Y0513228D03*
X0554780Y0513228D03*
X0564465Y0513228D03*
X0564465Y0523228D03*
X0554780Y0523228D03*
X0544780Y0523228D03*
X0544780Y0533228D03*
X0554780Y0533228D03*
X0564465Y0533228D03*
X0554780Y0483228D03*
X0544780Y0483228D03*
X0584780Y0483228D03*
X0594465Y0483228D03*
X0604465Y0483228D03*
X0444780Y0333228D03*
X0444780Y0323228D03*
X0434780Y0323228D03*
X0434780Y0333228D03*
X0194780Y0333228D03*
X0194780Y0323228D03*
X0134780Y0323228D03*
X0134780Y0333228D03*
X0124780Y0333228D03*
X0124780Y0323228D03*
X0114898Y0323228D03*
X0114898Y0333228D03*
X0114898Y0313228D03*
X0124780Y0313228D03*
X0134780Y0313228D03*
X0114898Y0273228D03*
X0114898Y0233228D03*
X0035213Y0183228D03*
X0035213Y0173228D03*
X0035213Y0163228D03*
X0035213Y0153228D03*
X0035213Y0143228D03*
X0035213Y0133228D03*
X0035213Y0123228D03*
M02*
