G75*
%MOIN*%
%OFA0B0*%
%FSLAX25Y25*%
%IPPOS*%
%LPD*%
%AMOC8*
5,1,8,0,0,1.08239X$1,22.5*
%
%ADD10C,0.00000*%
%ADD11C,0.00787*%
D10*
X0037417Y0105394D02*
X0037419Y0105587D01*
X0037426Y0105780D01*
X0037438Y0105973D01*
X0037455Y0106166D01*
X0037476Y0106358D01*
X0037502Y0106549D01*
X0037533Y0106740D01*
X0037568Y0106930D01*
X0037608Y0107119D01*
X0037653Y0107307D01*
X0037702Y0107494D01*
X0037756Y0107680D01*
X0037814Y0107864D01*
X0037877Y0108047D01*
X0037945Y0108228D01*
X0038016Y0108407D01*
X0038093Y0108585D01*
X0038173Y0108761D01*
X0038258Y0108934D01*
X0038347Y0109106D01*
X0038440Y0109275D01*
X0038537Y0109442D01*
X0038639Y0109607D01*
X0038744Y0109769D01*
X0038853Y0109928D01*
X0038967Y0110085D01*
X0039084Y0110238D01*
X0039204Y0110389D01*
X0039329Y0110537D01*
X0039457Y0110682D01*
X0039588Y0110823D01*
X0039723Y0110962D01*
X0039862Y0111097D01*
X0040003Y0111228D01*
X0040148Y0111356D01*
X0040296Y0111481D01*
X0040447Y0111601D01*
X0040600Y0111718D01*
X0040757Y0111832D01*
X0040916Y0111941D01*
X0041078Y0112046D01*
X0041243Y0112148D01*
X0041410Y0112245D01*
X0041579Y0112338D01*
X0041751Y0112427D01*
X0041924Y0112512D01*
X0042100Y0112592D01*
X0042278Y0112669D01*
X0042457Y0112740D01*
X0042638Y0112808D01*
X0042821Y0112871D01*
X0043005Y0112929D01*
X0043191Y0112983D01*
X0043378Y0113032D01*
X0043566Y0113077D01*
X0043755Y0113117D01*
X0043945Y0113152D01*
X0044136Y0113183D01*
X0044327Y0113209D01*
X0044519Y0113230D01*
X0044712Y0113247D01*
X0044905Y0113259D01*
X0045098Y0113266D01*
X0045291Y0113268D01*
X0045484Y0113266D01*
X0045677Y0113259D01*
X0045870Y0113247D01*
X0046063Y0113230D01*
X0046255Y0113209D01*
X0046446Y0113183D01*
X0046637Y0113152D01*
X0046827Y0113117D01*
X0047016Y0113077D01*
X0047204Y0113032D01*
X0047391Y0112983D01*
X0047577Y0112929D01*
X0047761Y0112871D01*
X0047944Y0112808D01*
X0048125Y0112740D01*
X0048304Y0112669D01*
X0048482Y0112592D01*
X0048658Y0112512D01*
X0048831Y0112427D01*
X0049003Y0112338D01*
X0049172Y0112245D01*
X0049339Y0112148D01*
X0049504Y0112046D01*
X0049666Y0111941D01*
X0049825Y0111832D01*
X0049982Y0111718D01*
X0050135Y0111601D01*
X0050286Y0111481D01*
X0050434Y0111356D01*
X0050579Y0111228D01*
X0050720Y0111097D01*
X0050859Y0110962D01*
X0050994Y0110823D01*
X0051125Y0110682D01*
X0051253Y0110537D01*
X0051378Y0110389D01*
X0051498Y0110238D01*
X0051615Y0110085D01*
X0051729Y0109928D01*
X0051838Y0109769D01*
X0051943Y0109607D01*
X0052045Y0109442D01*
X0052142Y0109275D01*
X0052235Y0109106D01*
X0052324Y0108934D01*
X0052409Y0108761D01*
X0052489Y0108585D01*
X0052566Y0108407D01*
X0052637Y0108228D01*
X0052705Y0108047D01*
X0052768Y0107864D01*
X0052826Y0107680D01*
X0052880Y0107494D01*
X0052929Y0107307D01*
X0052974Y0107119D01*
X0053014Y0106930D01*
X0053049Y0106740D01*
X0053080Y0106549D01*
X0053106Y0106358D01*
X0053127Y0106166D01*
X0053144Y0105973D01*
X0053156Y0105780D01*
X0053163Y0105587D01*
X0053165Y0105394D01*
X0053163Y0105201D01*
X0053156Y0105008D01*
X0053144Y0104815D01*
X0053127Y0104622D01*
X0053106Y0104430D01*
X0053080Y0104239D01*
X0053049Y0104048D01*
X0053014Y0103858D01*
X0052974Y0103669D01*
X0052929Y0103481D01*
X0052880Y0103294D01*
X0052826Y0103108D01*
X0052768Y0102924D01*
X0052705Y0102741D01*
X0052637Y0102560D01*
X0052566Y0102381D01*
X0052489Y0102203D01*
X0052409Y0102027D01*
X0052324Y0101854D01*
X0052235Y0101682D01*
X0052142Y0101513D01*
X0052045Y0101346D01*
X0051943Y0101181D01*
X0051838Y0101019D01*
X0051729Y0100860D01*
X0051615Y0100703D01*
X0051498Y0100550D01*
X0051378Y0100399D01*
X0051253Y0100251D01*
X0051125Y0100106D01*
X0050994Y0099965D01*
X0050859Y0099826D01*
X0050720Y0099691D01*
X0050579Y0099560D01*
X0050434Y0099432D01*
X0050286Y0099307D01*
X0050135Y0099187D01*
X0049982Y0099070D01*
X0049825Y0098956D01*
X0049666Y0098847D01*
X0049504Y0098742D01*
X0049339Y0098640D01*
X0049172Y0098543D01*
X0049003Y0098450D01*
X0048831Y0098361D01*
X0048658Y0098276D01*
X0048482Y0098196D01*
X0048304Y0098119D01*
X0048125Y0098048D01*
X0047944Y0097980D01*
X0047761Y0097917D01*
X0047577Y0097859D01*
X0047391Y0097805D01*
X0047204Y0097756D01*
X0047016Y0097711D01*
X0046827Y0097671D01*
X0046637Y0097636D01*
X0046446Y0097605D01*
X0046255Y0097579D01*
X0046063Y0097558D01*
X0045870Y0097541D01*
X0045677Y0097529D01*
X0045484Y0097522D01*
X0045291Y0097520D01*
X0045098Y0097522D01*
X0044905Y0097529D01*
X0044712Y0097541D01*
X0044519Y0097558D01*
X0044327Y0097579D01*
X0044136Y0097605D01*
X0043945Y0097636D01*
X0043755Y0097671D01*
X0043566Y0097711D01*
X0043378Y0097756D01*
X0043191Y0097805D01*
X0043005Y0097859D01*
X0042821Y0097917D01*
X0042638Y0097980D01*
X0042457Y0098048D01*
X0042278Y0098119D01*
X0042100Y0098196D01*
X0041924Y0098276D01*
X0041751Y0098361D01*
X0041579Y0098450D01*
X0041410Y0098543D01*
X0041243Y0098640D01*
X0041078Y0098742D01*
X0040916Y0098847D01*
X0040757Y0098956D01*
X0040600Y0099070D01*
X0040447Y0099187D01*
X0040296Y0099307D01*
X0040148Y0099432D01*
X0040003Y0099560D01*
X0039862Y0099691D01*
X0039723Y0099826D01*
X0039588Y0099965D01*
X0039457Y0100106D01*
X0039329Y0100251D01*
X0039204Y0100399D01*
X0039084Y0100550D01*
X0038967Y0100703D01*
X0038853Y0100860D01*
X0038744Y0101019D01*
X0038639Y0101181D01*
X0038537Y0101346D01*
X0038440Y0101513D01*
X0038347Y0101682D01*
X0038258Y0101854D01*
X0038173Y0102027D01*
X0038093Y0102203D01*
X0038016Y0102381D01*
X0037945Y0102560D01*
X0037877Y0102741D01*
X0037814Y0102924D01*
X0037756Y0103108D01*
X0037702Y0103294D01*
X0037653Y0103481D01*
X0037608Y0103669D01*
X0037568Y0103858D01*
X0037533Y0104048D01*
X0037502Y0104239D01*
X0037476Y0104430D01*
X0037455Y0104622D01*
X0037438Y0104815D01*
X0037426Y0105008D01*
X0037419Y0105201D01*
X0037417Y0105394D01*
X0126984Y0105394D02*
X0126986Y0105587D01*
X0126993Y0105780D01*
X0127005Y0105973D01*
X0127022Y0106166D01*
X0127043Y0106358D01*
X0127069Y0106549D01*
X0127100Y0106740D01*
X0127135Y0106930D01*
X0127175Y0107119D01*
X0127220Y0107307D01*
X0127269Y0107494D01*
X0127323Y0107680D01*
X0127381Y0107864D01*
X0127444Y0108047D01*
X0127512Y0108228D01*
X0127583Y0108407D01*
X0127660Y0108585D01*
X0127740Y0108761D01*
X0127825Y0108934D01*
X0127914Y0109106D01*
X0128007Y0109275D01*
X0128104Y0109442D01*
X0128206Y0109607D01*
X0128311Y0109769D01*
X0128420Y0109928D01*
X0128534Y0110085D01*
X0128651Y0110238D01*
X0128771Y0110389D01*
X0128896Y0110537D01*
X0129024Y0110682D01*
X0129155Y0110823D01*
X0129290Y0110962D01*
X0129429Y0111097D01*
X0129570Y0111228D01*
X0129715Y0111356D01*
X0129863Y0111481D01*
X0130014Y0111601D01*
X0130167Y0111718D01*
X0130324Y0111832D01*
X0130483Y0111941D01*
X0130645Y0112046D01*
X0130810Y0112148D01*
X0130977Y0112245D01*
X0131146Y0112338D01*
X0131318Y0112427D01*
X0131491Y0112512D01*
X0131667Y0112592D01*
X0131845Y0112669D01*
X0132024Y0112740D01*
X0132205Y0112808D01*
X0132388Y0112871D01*
X0132572Y0112929D01*
X0132758Y0112983D01*
X0132945Y0113032D01*
X0133133Y0113077D01*
X0133322Y0113117D01*
X0133512Y0113152D01*
X0133703Y0113183D01*
X0133894Y0113209D01*
X0134086Y0113230D01*
X0134279Y0113247D01*
X0134472Y0113259D01*
X0134665Y0113266D01*
X0134858Y0113268D01*
X0135051Y0113266D01*
X0135244Y0113259D01*
X0135437Y0113247D01*
X0135630Y0113230D01*
X0135822Y0113209D01*
X0136013Y0113183D01*
X0136204Y0113152D01*
X0136394Y0113117D01*
X0136583Y0113077D01*
X0136771Y0113032D01*
X0136958Y0112983D01*
X0137144Y0112929D01*
X0137328Y0112871D01*
X0137511Y0112808D01*
X0137692Y0112740D01*
X0137871Y0112669D01*
X0138049Y0112592D01*
X0138225Y0112512D01*
X0138398Y0112427D01*
X0138570Y0112338D01*
X0138739Y0112245D01*
X0138906Y0112148D01*
X0139071Y0112046D01*
X0139233Y0111941D01*
X0139392Y0111832D01*
X0139549Y0111718D01*
X0139702Y0111601D01*
X0139853Y0111481D01*
X0140001Y0111356D01*
X0140146Y0111228D01*
X0140287Y0111097D01*
X0140426Y0110962D01*
X0140561Y0110823D01*
X0140692Y0110682D01*
X0140820Y0110537D01*
X0140945Y0110389D01*
X0141065Y0110238D01*
X0141182Y0110085D01*
X0141296Y0109928D01*
X0141405Y0109769D01*
X0141510Y0109607D01*
X0141612Y0109442D01*
X0141709Y0109275D01*
X0141802Y0109106D01*
X0141891Y0108934D01*
X0141976Y0108761D01*
X0142056Y0108585D01*
X0142133Y0108407D01*
X0142204Y0108228D01*
X0142272Y0108047D01*
X0142335Y0107864D01*
X0142393Y0107680D01*
X0142447Y0107494D01*
X0142496Y0107307D01*
X0142541Y0107119D01*
X0142581Y0106930D01*
X0142616Y0106740D01*
X0142647Y0106549D01*
X0142673Y0106358D01*
X0142694Y0106166D01*
X0142711Y0105973D01*
X0142723Y0105780D01*
X0142730Y0105587D01*
X0142732Y0105394D01*
X0142730Y0105201D01*
X0142723Y0105008D01*
X0142711Y0104815D01*
X0142694Y0104622D01*
X0142673Y0104430D01*
X0142647Y0104239D01*
X0142616Y0104048D01*
X0142581Y0103858D01*
X0142541Y0103669D01*
X0142496Y0103481D01*
X0142447Y0103294D01*
X0142393Y0103108D01*
X0142335Y0102924D01*
X0142272Y0102741D01*
X0142204Y0102560D01*
X0142133Y0102381D01*
X0142056Y0102203D01*
X0141976Y0102027D01*
X0141891Y0101854D01*
X0141802Y0101682D01*
X0141709Y0101513D01*
X0141612Y0101346D01*
X0141510Y0101181D01*
X0141405Y0101019D01*
X0141296Y0100860D01*
X0141182Y0100703D01*
X0141065Y0100550D01*
X0140945Y0100399D01*
X0140820Y0100251D01*
X0140692Y0100106D01*
X0140561Y0099965D01*
X0140426Y0099826D01*
X0140287Y0099691D01*
X0140146Y0099560D01*
X0140001Y0099432D01*
X0139853Y0099307D01*
X0139702Y0099187D01*
X0139549Y0099070D01*
X0139392Y0098956D01*
X0139233Y0098847D01*
X0139071Y0098742D01*
X0138906Y0098640D01*
X0138739Y0098543D01*
X0138570Y0098450D01*
X0138398Y0098361D01*
X0138225Y0098276D01*
X0138049Y0098196D01*
X0137871Y0098119D01*
X0137692Y0098048D01*
X0137511Y0097980D01*
X0137328Y0097917D01*
X0137144Y0097859D01*
X0136958Y0097805D01*
X0136771Y0097756D01*
X0136583Y0097711D01*
X0136394Y0097671D01*
X0136204Y0097636D01*
X0136013Y0097605D01*
X0135822Y0097579D01*
X0135630Y0097558D01*
X0135437Y0097541D01*
X0135244Y0097529D01*
X0135051Y0097522D01*
X0134858Y0097520D01*
X0134665Y0097522D01*
X0134472Y0097529D01*
X0134279Y0097541D01*
X0134086Y0097558D01*
X0133894Y0097579D01*
X0133703Y0097605D01*
X0133512Y0097636D01*
X0133322Y0097671D01*
X0133133Y0097711D01*
X0132945Y0097756D01*
X0132758Y0097805D01*
X0132572Y0097859D01*
X0132388Y0097917D01*
X0132205Y0097980D01*
X0132024Y0098048D01*
X0131845Y0098119D01*
X0131667Y0098196D01*
X0131491Y0098276D01*
X0131318Y0098361D01*
X0131146Y0098450D01*
X0130977Y0098543D01*
X0130810Y0098640D01*
X0130645Y0098742D01*
X0130483Y0098847D01*
X0130324Y0098956D01*
X0130167Y0099070D01*
X0130014Y0099187D01*
X0129863Y0099307D01*
X0129715Y0099432D01*
X0129570Y0099560D01*
X0129429Y0099691D01*
X0129290Y0099826D01*
X0129155Y0099965D01*
X0129024Y0100106D01*
X0128896Y0100251D01*
X0128771Y0100399D01*
X0128651Y0100550D01*
X0128534Y0100703D01*
X0128420Y0100860D01*
X0128311Y0101019D01*
X0128206Y0101181D01*
X0128104Y0101346D01*
X0128007Y0101513D01*
X0127914Y0101682D01*
X0127825Y0101854D01*
X0127740Y0102027D01*
X0127660Y0102203D01*
X0127583Y0102381D01*
X0127512Y0102560D01*
X0127444Y0102741D01*
X0127381Y0102924D01*
X0127323Y0103108D01*
X0127269Y0103294D01*
X0127220Y0103481D01*
X0127175Y0103669D01*
X0127135Y0103858D01*
X0127100Y0104048D01*
X0127069Y0104239D01*
X0127043Y0104430D01*
X0127022Y0104622D01*
X0127005Y0104815D01*
X0126993Y0105008D01*
X0126986Y0105201D01*
X0126984Y0105394D01*
X0217535Y0105394D02*
X0217537Y0105587D01*
X0217544Y0105780D01*
X0217556Y0105973D01*
X0217573Y0106166D01*
X0217594Y0106358D01*
X0217620Y0106549D01*
X0217651Y0106740D01*
X0217686Y0106930D01*
X0217726Y0107119D01*
X0217771Y0107307D01*
X0217820Y0107494D01*
X0217874Y0107680D01*
X0217932Y0107864D01*
X0217995Y0108047D01*
X0218063Y0108228D01*
X0218134Y0108407D01*
X0218211Y0108585D01*
X0218291Y0108761D01*
X0218376Y0108934D01*
X0218465Y0109106D01*
X0218558Y0109275D01*
X0218655Y0109442D01*
X0218757Y0109607D01*
X0218862Y0109769D01*
X0218971Y0109928D01*
X0219085Y0110085D01*
X0219202Y0110238D01*
X0219322Y0110389D01*
X0219447Y0110537D01*
X0219575Y0110682D01*
X0219706Y0110823D01*
X0219841Y0110962D01*
X0219980Y0111097D01*
X0220121Y0111228D01*
X0220266Y0111356D01*
X0220414Y0111481D01*
X0220565Y0111601D01*
X0220718Y0111718D01*
X0220875Y0111832D01*
X0221034Y0111941D01*
X0221196Y0112046D01*
X0221361Y0112148D01*
X0221528Y0112245D01*
X0221697Y0112338D01*
X0221869Y0112427D01*
X0222042Y0112512D01*
X0222218Y0112592D01*
X0222396Y0112669D01*
X0222575Y0112740D01*
X0222756Y0112808D01*
X0222939Y0112871D01*
X0223123Y0112929D01*
X0223309Y0112983D01*
X0223496Y0113032D01*
X0223684Y0113077D01*
X0223873Y0113117D01*
X0224063Y0113152D01*
X0224254Y0113183D01*
X0224445Y0113209D01*
X0224637Y0113230D01*
X0224830Y0113247D01*
X0225023Y0113259D01*
X0225216Y0113266D01*
X0225409Y0113268D01*
X0225602Y0113266D01*
X0225795Y0113259D01*
X0225988Y0113247D01*
X0226181Y0113230D01*
X0226373Y0113209D01*
X0226564Y0113183D01*
X0226755Y0113152D01*
X0226945Y0113117D01*
X0227134Y0113077D01*
X0227322Y0113032D01*
X0227509Y0112983D01*
X0227695Y0112929D01*
X0227879Y0112871D01*
X0228062Y0112808D01*
X0228243Y0112740D01*
X0228422Y0112669D01*
X0228600Y0112592D01*
X0228776Y0112512D01*
X0228949Y0112427D01*
X0229121Y0112338D01*
X0229290Y0112245D01*
X0229457Y0112148D01*
X0229622Y0112046D01*
X0229784Y0111941D01*
X0229943Y0111832D01*
X0230100Y0111718D01*
X0230253Y0111601D01*
X0230404Y0111481D01*
X0230552Y0111356D01*
X0230697Y0111228D01*
X0230838Y0111097D01*
X0230977Y0110962D01*
X0231112Y0110823D01*
X0231243Y0110682D01*
X0231371Y0110537D01*
X0231496Y0110389D01*
X0231616Y0110238D01*
X0231733Y0110085D01*
X0231847Y0109928D01*
X0231956Y0109769D01*
X0232061Y0109607D01*
X0232163Y0109442D01*
X0232260Y0109275D01*
X0232353Y0109106D01*
X0232442Y0108934D01*
X0232527Y0108761D01*
X0232607Y0108585D01*
X0232684Y0108407D01*
X0232755Y0108228D01*
X0232823Y0108047D01*
X0232886Y0107864D01*
X0232944Y0107680D01*
X0232998Y0107494D01*
X0233047Y0107307D01*
X0233092Y0107119D01*
X0233132Y0106930D01*
X0233167Y0106740D01*
X0233198Y0106549D01*
X0233224Y0106358D01*
X0233245Y0106166D01*
X0233262Y0105973D01*
X0233274Y0105780D01*
X0233281Y0105587D01*
X0233283Y0105394D01*
X0233281Y0105201D01*
X0233274Y0105008D01*
X0233262Y0104815D01*
X0233245Y0104622D01*
X0233224Y0104430D01*
X0233198Y0104239D01*
X0233167Y0104048D01*
X0233132Y0103858D01*
X0233092Y0103669D01*
X0233047Y0103481D01*
X0232998Y0103294D01*
X0232944Y0103108D01*
X0232886Y0102924D01*
X0232823Y0102741D01*
X0232755Y0102560D01*
X0232684Y0102381D01*
X0232607Y0102203D01*
X0232527Y0102027D01*
X0232442Y0101854D01*
X0232353Y0101682D01*
X0232260Y0101513D01*
X0232163Y0101346D01*
X0232061Y0101181D01*
X0231956Y0101019D01*
X0231847Y0100860D01*
X0231733Y0100703D01*
X0231616Y0100550D01*
X0231496Y0100399D01*
X0231371Y0100251D01*
X0231243Y0100106D01*
X0231112Y0099965D01*
X0230977Y0099826D01*
X0230838Y0099691D01*
X0230697Y0099560D01*
X0230552Y0099432D01*
X0230404Y0099307D01*
X0230253Y0099187D01*
X0230100Y0099070D01*
X0229943Y0098956D01*
X0229784Y0098847D01*
X0229622Y0098742D01*
X0229457Y0098640D01*
X0229290Y0098543D01*
X0229121Y0098450D01*
X0228949Y0098361D01*
X0228776Y0098276D01*
X0228600Y0098196D01*
X0228422Y0098119D01*
X0228243Y0098048D01*
X0228062Y0097980D01*
X0227879Y0097917D01*
X0227695Y0097859D01*
X0227509Y0097805D01*
X0227322Y0097756D01*
X0227134Y0097711D01*
X0226945Y0097671D01*
X0226755Y0097636D01*
X0226564Y0097605D01*
X0226373Y0097579D01*
X0226181Y0097558D01*
X0225988Y0097541D01*
X0225795Y0097529D01*
X0225602Y0097522D01*
X0225409Y0097520D01*
X0225216Y0097522D01*
X0225023Y0097529D01*
X0224830Y0097541D01*
X0224637Y0097558D01*
X0224445Y0097579D01*
X0224254Y0097605D01*
X0224063Y0097636D01*
X0223873Y0097671D01*
X0223684Y0097711D01*
X0223496Y0097756D01*
X0223309Y0097805D01*
X0223123Y0097859D01*
X0222939Y0097917D01*
X0222756Y0097980D01*
X0222575Y0098048D01*
X0222396Y0098119D01*
X0222218Y0098196D01*
X0222042Y0098276D01*
X0221869Y0098361D01*
X0221697Y0098450D01*
X0221528Y0098543D01*
X0221361Y0098640D01*
X0221196Y0098742D01*
X0221034Y0098847D01*
X0220875Y0098956D01*
X0220718Y0099070D01*
X0220565Y0099187D01*
X0220414Y0099307D01*
X0220266Y0099432D01*
X0220121Y0099560D01*
X0219980Y0099691D01*
X0219841Y0099826D01*
X0219706Y0099965D01*
X0219575Y0100106D01*
X0219447Y0100251D01*
X0219322Y0100399D01*
X0219202Y0100550D01*
X0219085Y0100703D01*
X0218971Y0100860D01*
X0218862Y0101019D01*
X0218757Y0101181D01*
X0218655Y0101346D01*
X0218558Y0101513D01*
X0218465Y0101682D01*
X0218376Y0101854D01*
X0218291Y0102027D01*
X0218211Y0102203D01*
X0218134Y0102381D01*
X0218063Y0102560D01*
X0217995Y0102741D01*
X0217932Y0102924D01*
X0217874Y0103108D01*
X0217820Y0103294D01*
X0217771Y0103481D01*
X0217726Y0103669D01*
X0217686Y0103858D01*
X0217651Y0104048D01*
X0217620Y0104239D01*
X0217594Y0104430D01*
X0217573Y0104622D01*
X0217556Y0104815D01*
X0217544Y0105008D01*
X0217537Y0105201D01*
X0217535Y0105394D01*
X0551394Y0136890D02*
X0551396Y0137083D01*
X0551403Y0137276D01*
X0551415Y0137469D01*
X0551432Y0137662D01*
X0551453Y0137854D01*
X0551479Y0138045D01*
X0551510Y0138236D01*
X0551545Y0138426D01*
X0551585Y0138615D01*
X0551630Y0138803D01*
X0551679Y0138990D01*
X0551733Y0139176D01*
X0551791Y0139360D01*
X0551854Y0139543D01*
X0551922Y0139724D01*
X0551993Y0139903D01*
X0552070Y0140081D01*
X0552150Y0140257D01*
X0552235Y0140430D01*
X0552324Y0140602D01*
X0552417Y0140771D01*
X0552514Y0140938D01*
X0552616Y0141103D01*
X0552721Y0141265D01*
X0552830Y0141424D01*
X0552944Y0141581D01*
X0553061Y0141734D01*
X0553181Y0141885D01*
X0553306Y0142033D01*
X0553434Y0142178D01*
X0553565Y0142319D01*
X0553700Y0142458D01*
X0553839Y0142593D01*
X0553980Y0142724D01*
X0554125Y0142852D01*
X0554273Y0142977D01*
X0554424Y0143097D01*
X0554577Y0143214D01*
X0554734Y0143328D01*
X0554893Y0143437D01*
X0555055Y0143542D01*
X0555220Y0143644D01*
X0555387Y0143741D01*
X0555556Y0143834D01*
X0555728Y0143923D01*
X0555901Y0144008D01*
X0556077Y0144088D01*
X0556255Y0144165D01*
X0556434Y0144236D01*
X0556615Y0144304D01*
X0556798Y0144367D01*
X0556982Y0144425D01*
X0557168Y0144479D01*
X0557355Y0144528D01*
X0557543Y0144573D01*
X0557732Y0144613D01*
X0557922Y0144648D01*
X0558113Y0144679D01*
X0558304Y0144705D01*
X0558496Y0144726D01*
X0558689Y0144743D01*
X0558882Y0144755D01*
X0559075Y0144762D01*
X0559268Y0144764D01*
X0559461Y0144762D01*
X0559654Y0144755D01*
X0559847Y0144743D01*
X0560040Y0144726D01*
X0560232Y0144705D01*
X0560423Y0144679D01*
X0560614Y0144648D01*
X0560804Y0144613D01*
X0560993Y0144573D01*
X0561181Y0144528D01*
X0561368Y0144479D01*
X0561554Y0144425D01*
X0561738Y0144367D01*
X0561921Y0144304D01*
X0562102Y0144236D01*
X0562281Y0144165D01*
X0562459Y0144088D01*
X0562635Y0144008D01*
X0562808Y0143923D01*
X0562980Y0143834D01*
X0563149Y0143741D01*
X0563316Y0143644D01*
X0563481Y0143542D01*
X0563643Y0143437D01*
X0563802Y0143328D01*
X0563959Y0143214D01*
X0564112Y0143097D01*
X0564263Y0142977D01*
X0564411Y0142852D01*
X0564556Y0142724D01*
X0564697Y0142593D01*
X0564836Y0142458D01*
X0564971Y0142319D01*
X0565102Y0142178D01*
X0565230Y0142033D01*
X0565355Y0141885D01*
X0565475Y0141734D01*
X0565592Y0141581D01*
X0565706Y0141424D01*
X0565815Y0141265D01*
X0565920Y0141103D01*
X0566022Y0140938D01*
X0566119Y0140771D01*
X0566212Y0140602D01*
X0566301Y0140430D01*
X0566386Y0140257D01*
X0566466Y0140081D01*
X0566543Y0139903D01*
X0566614Y0139724D01*
X0566682Y0139543D01*
X0566745Y0139360D01*
X0566803Y0139176D01*
X0566857Y0138990D01*
X0566906Y0138803D01*
X0566951Y0138615D01*
X0566991Y0138426D01*
X0567026Y0138236D01*
X0567057Y0138045D01*
X0567083Y0137854D01*
X0567104Y0137662D01*
X0567121Y0137469D01*
X0567133Y0137276D01*
X0567140Y0137083D01*
X0567142Y0136890D01*
X0567140Y0136697D01*
X0567133Y0136504D01*
X0567121Y0136311D01*
X0567104Y0136118D01*
X0567083Y0135926D01*
X0567057Y0135735D01*
X0567026Y0135544D01*
X0566991Y0135354D01*
X0566951Y0135165D01*
X0566906Y0134977D01*
X0566857Y0134790D01*
X0566803Y0134604D01*
X0566745Y0134420D01*
X0566682Y0134237D01*
X0566614Y0134056D01*
X0566543Y0133877D01*
X0566466Y0133699D01*
X0566386Y0133523D01*
X0566301Y0133350D01*
X0566212Y0133178D01*
X0566119Y0133009D01*
X0566022Y0132842D01*
X0565920Y0132677D01*
X0565815Y0132515D01*
X0565706Y0132356D01*
X0565592Y0132199D01*
X0565475Y0132046D01*
X0565355Y0131895D01*
X0565230Y0131747D01*
X0565102Y0131602D01*
X0564971Y0131461D01*
X0564836Y0131322D01*
X0564697Y0131187D01*
X0564556Y0131056D01*
X0564411Y0130928D01*
X0564263Y0130803D01*
X0564112Y0130683D01*
X0563959Y0130566D01*
X0563802Y0130452D01*
X0563643Y0130343D01*
X0563481Y0130238D01*
X0563316Y0130136D01*
X0563149Y0130039D01*
X0562980Y0129946D01*
X0562808Y0129857D01*
X0562635Y0129772D01*
X0562459Y0129692D01*
X0562281Y0129615D01*
X0562102Y0129544D01*
X0561921Y0129476D01*
X0561738Y0129413D01*
X0561554Y0129355D01*
X0561368Y0129301D01*
X0561181Y0129252D01*
X0560993Y0129207D01*
X0560804Y0129167D01*
X0560614Y0129132D01*
X0560423Y0129101D01*
X0560232Y0129075D01*
X0560040Y0129054D01*
X0559847Y0129037D01*
X0559654Y0129025D01*
X0559461Y0129018D01*
X0559268Y0129016D01*
X0559075Y0129018D01*
X0558882Y0129025D01*
X0558689Y0129037D01*
X0558496Y0129054D01*
X0558304Y0129075D01*
X0558113Y0129101D01*
X0557922Y0129132D01*
X0557732Y0129167D01*
X0557543Y0129207D01*
X0557355Y0129252D01*
X0557168Y0129301D01*
X0556982Y0129355D01*
X0556798Y0129413D01*
X0556615Y0129476D01*
X0556434Y0129544D01*
X0556255Y0129615D01*
X0556077Y0129692D01*
X0555901Y0129772D01*
X0555728Y0129857D01*
X0555556Y0129946D01*
X0555387Y0130039D01*
X0555220Y0130136D01*
X0555055Y0130238D01*
X0554893Y0130343D01*
X0554734Y0130452D01*
X0554577Y0130566D01*
X0554424Y0130683D01*
X0554273Y0130803D01*
X0554125Y0130928D01*
X0553980Y0131056D01*
X0553839Y0131187D01*
X0553700Y0131322D01*
X0553565Y0131461D01*
X0553434Y0131602D01*
X0553306Y0131747D01*
X0553181Y0131895D01*
X0553061Y0132046D01*
X0552944Y0132199D01*
X0552830Y0132356D01*
X0552721Y0132515D01*
X0552616Y0132677D01*
X0552514Y0132842D01*
X0552417Y0133009D01*
X0552324Y0133178D01*
X0552235Y0133350D01*
X0552150Y0133523D01*
X0552070Y0133699D01*
X0551993Y0133877D01*
X0551922Y0134056D01*
X0551854Y0134237D01*
X0551791Y0134420D01*
X0551733Y0134604D01*
X0551679Y0134790D01*
X0551630Y0134977D01*
X0551585Y0135165D01*
X0551545Y0135354D01*
X0551510Y0135544D01*
X0551479Y0135735D01*
X0551453Y0135926D01*
X0551432Y0136118D01*
X0551415Y0136311D01*
X0551403Y0136504D01*
X0551396Y0136697D01*
X0551394Y0136890D01*
X0582890Y0136890D02*
X0582892Y0137083D01*
X0582899Y0137276D01*
X0582911Y0137469D01*
X0582928Y0137662D01*
X0582949Y0137854D01*
X0582975Y0138045D01*
X0583006Y0138236D01*
X0583041Y0138426D01*
X0583081Y0138615D01*
X0583126Y0138803D01*
X0583175Y0138990D01*
X0583229Y0139176D01*
X0583287Y0139360D01*
X0583350Y0139543D01*
X0583418Y0139724D01*
X0583489Y0139903D01*
X0583566Y0140081D01*
X0583646Y0140257D01*
X0583731Y0140430D01*
X0583820Y0140602D01*
X0583913Y0140771D01*
X0584010Y0140938D01*
X0584112Y0141103D01*
X0584217Y0141265D01*
X0584326Y0141424D01*
X0584440Y0141581D01*
X0584557Y0141734D01*
X0584677Y0141885D01*
X0584802Y0142033D01*
X0584930Y0142178D01*
X0585061Y0142319D01*
X0585196Y0142458D01*
X0585335Y0142593D01*
X0585476Y0142724D01*
X0585621Y0142852D01*
X0585769Y0142977D01*
X0585920Y0143097D01*
X0586073Y0143214D01*
X0586230Y0143328D01*
X0586389Y0143437D01*
X0586551Y0143542D01*
X0586716Y0143644D01*
X0586883Y0143741D01*
X0587052Y0143834D01*
X0587224Y0143923D01*
X0587397Y0144008D01*
X0587573Y0144088D01*
X0587751Y0144165D01*
X0587930Y0144236D01*
X0588111Y0144304D01*
X0588294Y0144367D01*
X0588478Y0144425D01*
X0588664Y0144479D01*
X0588851Y0144528D01*
X0589039Y0144573D01*
X0589228Y0144613D01*
X0589418Y0144648D01*
X0589609Y0144679D01*
X0589800Y0144705D01*
X0589992Y0144726D01*
X0590185Y0144743D01*
X0590378Y0144755D01*
X0590571Y0144762D01*
X0590764Y0144764D01*
X0590957Y0144762D01*
X0591150Y0144755D01*
X0591343Y0144743D01*
X0591536Y0144726D01*
X0591728Y0144705D01*
X0591919Y0144679D01*
X0592110Y0144648D01*
X0592300Y0144613D01*
X0592489Y0144573D01*
X0592677Y0144528D01*
X0592864Y0144479D01*
X0593050Y0144425D01*
X0593234Y0144367D01*
X0593417Y0144304D01*
X0593598Y0144236D01*
X0593777Y0144165D01*
X0593955Y0144088D01*
X0594131Y0144008D01*
X0594304Y0143923D01*
X0594476Y0143834D01*
X0594645Y0143741D01*
X0594812Y0143644D01*
X0594977Y0143542D01*
X0595139Y0143437D01*
X0595298Y0143328D01*
X0595455Y0143214D01*
X0595608Y0143097D01*
X0595759Y0142977D01*
X0595907Y0142852D01*
X0596052Y0142724D01*
X0596193Y0142593D01*
X0596332Y0142458D01*
X0596467Y0142319D01*
X0596598Y0142178D01*
X0596726Y0142033D01*
X0596851Y0141885D01*
X0596971Y0141734D01*
X0597088Y0141581D01*
X0597202Y0141424D01*
X0597311Y0141265D01*
X0597416Y0141103D01*
X0597518Y0140938D01*
X0597615Y0140771D01*
X0597708Y0140602D01*
X0597797Y0140430D01*
X0597882Y0140257D01*
X0597962Y0140081D01*
X0598039Y0139903D01*
X0598110Y0139724D01*
X0598178Y0139543D01*
X0598241Y0139360D01*
X0598299Y0139176D01*
X0598353Y0138990D01*
X0598402Y0138803D01*
X0598447Y0138615D01*
X0598487Y0138426D01*
X0598522Y0138236D01*
X0598553Y0138045D01*
X0598579Y0137854D01*
X0598600Y0137662D01*
X0598617Y0137469D01*
X0598629Y0137276D01*
X0598636Y0137083D01*
X0598638Y0136890D01*
X0598636Y0136697D01*
X0598629Y0136504D01*
X0598617Y0136311D01*
X0598600Y0136118D01*
X0598579Y0135926D01*
X0598553Y0135735D01*
X0598522Y0135544D01*
X0598487Y0135354D01*
X0598447Y0135165D01*
X0598402Y0134977D01*
X0598353Y0134790D01*
X0598299Y0134604D01*
X0598241Y0134420D01*
X0598178Y0134237D01*
X0598110Y0134056D01*
X0598039Y0133877D01*
X0597962Y0133699D01*
X0597882Y0133523D01*
X0597797Y0133350D01*
X0597708Y0133178D01*
X0597615Y0133009D01*
X0597518Y0132842D01*
X0597416Y0132677D01*
X0597311Y0132515D01*
X0597202Y0132356D01*
X0597088Y0132199D01*
X0596971Y0132046D01*
X0596851Y0131895D01*
X0596726Y0131747D01*
X0596598Y0131602D01*
X0596467Y0131461D01*
X0596332Y0131322D01*
X0596193Y0131187D01*
X0596052Y0131056D01*
X0595907Y0130928D01*
X0595759Y0130803D01*
X0595608Y0130683D01*
X0595455Y0130566D01*
X0595298Y0130452D01*
X0595139Y0130343D01*
X0594977Y0130238D01*
X0594812Y0130136D01*
X0594645Y0130039D01*
X0594476Y0129946D01*
X0594304Y0129857D01*
X0594131Y0129772D01*
X0593955Y0129692D01*
X0593777Y0129615D01*
X0593598Y0129544D01*
X0593417Y0129476D01*
X0593234Y0129413D01*
X0593050Y0129355D01*
X0592864Y0129301D01*
X0592677Y0129252D01*
X0592489Y0129207D01*
X0592300Y0129167D01*
X0592110Y0129132D01*
X0591919Y0129101D01*
X0591728Y0129075D01*
X0591536Y0129054D01*
X0591343Y0129037D01*
X0591150Y0129025D01*
X0590957Y0129018D01*
X0590764Y0129016D01*
X0590571Y0129018D01*
X0590378Y0129025D01*
X0590185Y0129037D01*
X0589992Y0129054D01*
X0589800Y0129075D01*
X0589609Y0129101D01*
X0589418Y0129132D01*
X0589228Y0129167D01*
X0589039Y0129207D01*
X0588851Y0129252D01*
X0588664Y0129301D01*
X0588478Y0129355D01*
X0588294Y0129413D01*
X0588111Y0129476D01*
X0587930Y0129544D01*
X0587751Y0129615D01*
X0587573Y0129692D01*
X0587397Y0129772D01*
X0587224Y0129857D01*
X0587052Y0129946D01*
X0586883Y0130039D01*
X0586716Y0130136D01*
X0586551Y0130238D01*
X0586389Y0130343D01*
X0586230Y0130452D01*
X0586073Y0130566D01*
X0585920Y0130683D01*
X0585769Y0130803D01*
X0585621Y0130928D01*
X0585476Y0131056D01*
X0585335Y0131187D01*
X0585196Y0131322D01*
X0585061Y0131461D01*
X0584930Y0131602D01*
X0584802Y0131747D01*
X0584677Y0131895D01*
X0584557Y0132046D01*
X0584440Y0132199D01*
X0584326Y0132356D01*
X0584217Y0132515D01*
X0584112Y0132677D01*
X0584010Y0132842D01*
X0583913Y0133009D01*
X0583820Y0133178D01*
X0583731Y0133350D01*
X0583646Y0133523D01*
X0583566Y0133699D01*
X0583489Y0133877D01*
X0583418Y0134056D01*
X0583350Y0134237D01*
X0583287Y0134420D01*
X0583229Y0134604D01*
X0583175Y0134790D01*
X0583126Y0134977D01*
X0583081Y0135165D01*
X0583041Y0135354D01*
X0583006Y0135544D01*
X0582975Y0135735D01*
X0582949Y0135926D01*
X0582928Y0136118D01*
X0582911Y0136311D01*
X0582899Y0136504D01*
X0582892Y0136697D01*
X0582890Y0136890D01*
X0591944Y0544370D02*
X0591946Y0544523D01*
X0591952Y0544677D01*
X0591962Y0544830D01*
X0591976Y0544982D01*
X0591994Y0545135D01*
X0592016Y0545286D01*
X0592041Y0545437D01*
X0592071Y0545588D01*
X0592105Y0545738D01*
X0592142Y0545886D01*
X0592183Y0546034D01*
X0592228Y0546180D01*
X0592277Y0546326D01*
X0592330Y0546470D01*
X0592386Y0546612D01*
X0592446Y0546753D01*
X0592510Y0546893D01*
X0592577Y0547031D01*
X0592648Y0547167D01*
X0592723Y0547301D01*
X0592800Y0547433D01*
X0592882Y0547563D01*
X0592966Y0547691D01*
X0593054Y0547817D01*
X0593145Y0547940D01*
X0593239Y0548061D01*
X0593337Y0548179D01*
X0593437Y0548295D01*
X0593541Y0548408D01*
X0593647Y0548519D01*
X0593756Y0548627D01*
X0593868Y0548732D01*
X0593982Y0548833D01*
X0594100Y0548932D01*
X0594219Y0549028D01*
X0594341Y0549121D01*
X0594466Y0549210D01*
X0594593Y0549297D01*
X0594722Y0549379D01*
X0594853Y0549459D01*
X0594986Y0549535D01*
X0595121Y0549608D01*
X0595258Y0549677D01*
X0595397Y0549742D01*
X0595537Y0549804D01*
X0595679Y0549862D01*
X0595822Y0549917D01*
X0595967Y0549968D01*
X0596113Y0550015D01*
X0596260Y0550058D01*
X0596408Y0550097D01*
X0596557Y0550133D01*
X0596707Y0550164D01*
X0596858Y0550192D01*
X0597009Y0550216D01*
X0597162Y0550236D01*
X0597314Y0550252D01*
X0597467Y0550264D01*
X0597620Y0550272D01*
X0597773Y0550276D01*
X0597927Y0550276D01*
X0598080Y0550272D01*
X0598233Y0550264D01*
X0598386Y0550252D01*
X0598538Y0550236D01*
X0598691Y0550216D01*
X0598842Y0550192D01*
X0598993Y0550164D01*
X0599143Y0550133D01*
X0599292Y0550097D01*
X0599440Y0550058D01*
X0599587Y0550015D01*
X0599733Y0549968D01*
X0599878Y0549917D01*
X0600021Y0549862D01*
X0600163Y0549804D01*
X0600303Y0549742D01*
X0600442Y0549677D01*
X0600579Y0549608D01*
X0600714Y0549535D01*
X0600847Y0549459D01*
X0600978Y0549379D01*
X0601107Y0549297D01*
X0601234Y0549210D01*
X0601359Y0549121D01*
X0601481Y0549028D01*
X0601600Y0548932D01*
X0601718Y0548833D01*
X0601832Y0548732D01*
X0601944Y0548627D01*
X0602053Y0548519D01*
X0602159Y0548408D01*
X0602263Y0548295D01*
X0602363Y0548179D01*
X0602461Y0548061D01*
X0602555Y0547940D01*
X0602646Y0547817D01*
X0602734Y0547691D01*
X0602818Y0547563D01*
X0602900Y0547433D01*
X0602977Y0547301D01*
X0603052Y0547167D01*
X0603123Y0547031D01*
X0603190Y0546893D01*
X0603254Y0546753D01*
X0603314Y0546612D01*
X0603370Y0546470D01*
X0603423Y0546326D01*
X0603472Y0546180D01*
X0603517Y0546034D01*
X0603558Y0545886D01*
X0603595Y0545738D01*
X0603629Y0545588D01*
X0603659Y0545437D01*
X0603684Y0545286D01*
X0603706Y0545135D01*
X0603724Y0544982D01*
X0603738Y0544830D01*
X0603748Y0544677D01*
X0603754Y0544523D01*
X0603756Y0544370D01*
X0603754Y0544217D01*
X0603748Y0544063D01*
X0603738Y0543910D01*
X0603724Y0543758D01*
X0603706Y0543605D01*
X0603684Y0543454D01*
X0603659Y0543303D01*
X0603629Y0543152D01*
X0603595Y0543002D01*
X0603558Y0542854D01*
X0603517Y0542706D01*
X0603472Y0542560D01*
X0603423Y0542414D01*
X0603370Y0542270D01*
X0603314Y0542128D01*
X0603254Y0541987D01*
X0603190Y0541847D01*
X0603123Y0541709D01*
X0603052Y0541573D01*
X0602977Y0541439D01*
X0602900Y0541307D01*
X0602818Y0541177D01*
X0602734Y0541049D01*
X0602646Y0540923D01*
X0602555Y0540800D01*
X0602461Y0540679D01*
X0602363Y0540561D01*
X0602263Y0540445D01*
X0602159Y0540332D01*
X0602053Y0540221D01*
X0601944Y0540113D01*
X0601832Y0540008D01*
X0601718Y0539907D01*
X0601600Y0539808D01*
X0601481Y0539712D01*
X0601359Y0539619D01*
X0601234Y0539530D01*
X0601107Y0539443D01*
X0600978Y0539361D01*
X0600847Y0539281D01*
X0600714Y0539205D01*
X0600579Y0539132D01*
X0600442Y0539063D01*
X0600303Y0538998D01*
X0600163Y0538936D01*
X0600021Y0538878D01*
X0599878Y0538823D01*
X0599733Y0538772D01*
X0599587Y0538725D01*
X0599440Y0538682D01*
X0599292Y0538643D01*
X0599143Y0538607D01*
X0598993Y0538576D01*
X0598842Y0538548D01*
X0598691Y0538524D01*
X0598538Y0538504D01*
X0598386Y0538488D01*
X0598233Y0538476D01*
X0598080Y0538468D01*
X0597927Y0538464D01*
X0597773Y0538464D01*
X0597620Y0538468D01*
X0597467Y0538476D01*
X0597314Y0538488D01*
X0597162Y0538504D01*
X0597009Y0538524D01*
X0596858Y0538548D01*
X0596707Y0538576D01*
X0596557Y0538607D01*
X0596408Y0538643D01*
X0596260Y0538682D01*
X0596113Y0538725D01*
X0595967Y0538772D01*
X0595822Y0538823D01*
X0595679Y0538878D01*
X0595537Y0538936D01*
X0595397Y0538998D01*
X0595258Y0539063D01*
X0595121Y0539132D01*
X0594986Y0539205D01*
X0594853Y0539281D01*
X0594722Y0539361D01*
X0594593Y0539443D01*
X0594466Y0539530D01*
X0594341Y0539619D01*
X0594219Y0539712D01*
X0594100Y0539808D01*
X0593982Y0539907D01*
X0593868Y0540008D01*
X0593756Y0540113D01*
X0593647Y0540221D01*
X0593541Y0540332D01*
X0593437Y0540445D01*
X0593337Y0540561D01*
X0593239Y0540679D01*
X0593145Y0540800D01*
X0593054Y0540923D01*
X0592966Y0541049D01*
X0592882Y0541177D01*
X0592800Y0541307D01*
X0592723Y0541439D01*
X0592648Y0541573D01*
X0592577Y0541709D01*
X0592510Y0541847D01*
X0592446Y0541987D01*
X0592386Y0542128D01*
X0592330Y0542270D01*
X0592277Y0542414D01*
X0592228Y0542560D01*
X0592183Y0542706D01*
X0592142Y0542854D01*
X0592105Y0543002D01*
X0592071Y0543152D01*
X0592041Y0543303D01*
X0592016Y0543454D01*
X0591994Y0543605D01*
X0591976Y0543758D01*
X0591962Y0543910D01*
X0591952Y0544063D01*
X0591946Y0544217D01*
X0591944Y0544370D01*
X0015173Y0544370D02*
X0015175Y0544523D01*
X0015181Y0544677D01*
X0015191Y0544830D01*
X0015205Y0544982D01*
X0015223Y0545135D01*
X0015245Y0545286D01*
X0015270Y0545437D01*
X0015300Y0545588D01*
X0015334Y0545738D01*
X0015371Y0545886D01*
X0015412Y0546034D01*
X0015457Y0546180D01*
X0015506Y0546326D01*
X0015559Y0546470D01*
X0015615Y0546612D01*
X0015675Y0546753D01*
X0015739Y0546893D01*
X0015806Y0547031D01*
X0015877Y0547167D01*
X0015952Y0547301D01*
X0016029Y0547433D01*
X0016111Y0547563D01*
X0016195Y0547691D01*
X0016283Y0547817D01*
X0016374Y0547940D01*
X0016468Y0548061D01*
X0016566Y0548179D01*
X0016666Y0548295D01*
X0016770Y0548408D01*
X0016876Y0548519D01*
X0016985Y0548627D01*
X0017097Y0548732D01*
X0017211Y0548833D01*
X0017329Y0548932D01*
X0017448Y0549028D01*
X0017570Y0549121D01*
X0017695Y0549210D01*
X0017822Y0549297D01*
X0017951Y0549379D01*
X0018082Y0549459D01*
X0018215Y0549535D01*
X0018350Y0549608D01*
X0018487Y0549677D01*
X0018626Y0549742D01*
X0018766Y0549804D01*
X0018908Y0549862D01*
X0019051Y0549917D01*
X0019196Y0549968D01*
X0019342Y0550015D01*
X0019489Y0550058D01*
X0019637Y0550097D01*
X0019786Y0550133D01*
X0019936Y0550164D01*
X0020087Y0550192D01*
X0020238Y0550216D01*
X0020391Y0550236D01*
X0020543Y0550252D01*
X0020696Y0550264D01*
X0020849Y0550272D01*
X0021002Y0550276D01*
X0021156Y0550276D01*
X0021309Y0550272D01*
X0021462Y0550264D01*
X0021615Y0550252D01*
X0021767Y0550236D01*
X0021920Y0550216D01*
X0022071Y0550192D01*
X0022222Y0550164D01*
X0022372Y0550133D01*
X0022521Y0550097D01*
X0022669Y0550058D01*
X0022816Y0550015D01*
X0022962Y0549968D01*
X0023107Y0549917D01*
X0023250Y0549862D01*
X0023392Y0549804D01*
X0023532Y0549742D01*
X0023671Y0549677D01*
X0023808Y0549608D01*
X0023943Y0549535D01*
X0024076Y0549459D01*
X0024207Y0549379D01*
X0024336Y0549297D01*
X0024463Y0549210D01*
X0024588Y0549121D01*
X0024710Y0549028D01*
X0024829Y0548932D01*
X0024947Y0548833D01*
X0025061Y0548732D01*
X0025173Y0548627D01*
X0025282Y0548519D01*
X0025388Y0548408D01*
X0025492Y0548295D01*
X0025592Y0548179D01*
X0025690Y0548061D01*
X0025784Y0547940D01*
X0025875Y0547817D01*
X0025963Y0547691D01*
X0026047Y0547563D01*
X0026129Y0547433D01*
X0026206Y0547301D01*
X0026281Y0547167D01*
X0026352Y0547031D01*
X0026419Y0546893D01*
X0026483Y0546753D01*
X0026543Y0546612D01*
X0026599Y0546470D01*
X0026652Y0546326D01*
X0026701Y0546180D01*
X0026746Y0546034D01*
X0026787Y0545886D01*
X0026824Y0545738D01*
X0026858Y0545588D01*
X0026888Y0545437D01*
X0026913Y0545286D01*
X0026935Y0545135D01*
X0026953Y0544982D01*
X0026967Y0544830D01*
X0026977Y0544677D01*
X0026983Y0544523D01*
X0026985Y0544370D01*
X0026983Y0544217D01*
X0026977Y0544063D01*
X0026967Y0543910D01*
X0026953Y0543758D01*
X0026935Y0543605D01*
X0026913Y0543454D01*
X0026888Y0543303D01*
X0026858Y0543152D01*
X0026824Y0543002D01*
X0026787Y0542854D01*
X0026746Y0542706D01*
X0026701Y0542560D01*
X0026652Y0542414D01*
X0026599Y0542270D01*
X0026543Y0542128D01*
X0026483Y0541987D01*
X0026419Y0541847D01*
X0026352Y0541709D01*
X0026281Y0541573D01*
X0026206Y0541439D01*
X0026129Y0541307D01*
X0026047Y0541177D01*
X0025963Y0541049D01*
X0025875Y0540923D01*
X0025784Y0540800D01*
X0025690Y0540679D01*
X0025592Y0540561D01*
X0025492Y0540445D01*
X0025388Y0540332D01*
X0025282Y0540221D01*
X0025173Y0540113D01*
X0025061Y0540008D01*
X0024947Y0539907D01*
X0024829Y0539808D01*
X0024710Y0539712D01*
X0024588Y0539619D01*
X0024463Y0539530D01*
X0024336Y0539443D01*
X0024207Y0539361D01*
X0024076Y0539281D01*
X0023943Y0539205D01*
X0023808Y0539132D01*
X0023671Y0539063D01*
X0023532Y0538998D01*
X0023392Y0538936D01*
X0023250Y0538878D01*
X0023107Y0538823D01*
X0022962Y0538772D01*
X0022816Y0538725D01*
X0022669Y0538682D01*
X0022521Y0538643D01*
X0022372Y0538607D01*
X0022222Y0538576D01*
X0022071Y0538548D01*
X0021920Y0538524D01*
X0021767Y0538504D01*
X0021615Y0538488D01*
X0021462Y0538476D01*
X0021309Y0538468D01*
X0021156Y0538464D01*
X0021002Y0538464D01*
X0020849Y0538468D01*
X0020696Y0538476D01*
X0020543Y0538488D01*
X0020391Y0538504D01*
X0020238Y0538524D01*
X0020087Y0538548D01*
X0019936Y0538576D01*
X0019786Y0538607D01*
X0019637Y0538643D01*
X0019489Y0538682D01*
X0019342Y0538725D01*
X0019196Y0538772D01*
X0019051Y0538823D01*
X0018908Y0538878D01*
X0018766Y0538936D01*
X0018626Y0538998D01*
X0018487Y0539063D01*
X0018350Y0539132D01*
X0018215Y0539205D01*
X0018082Y0539281D01*
X0017951Y0539361D01*
X0017822Y0539443D01*
X0017695Y0539530D01*
X0017570Y0539619D01*
X0017448Y0539712D01*
X0017329Y0539808D01*
X0017211Y0539907D01*
X0017097Y0540008D01*
X0016985Y0540113D01*
X0016876Y0540221D01*
X0016770Y0540332D01*
X0016666Y0540445D01*
X0016566Y0540561D01*
X0016468Y0540679D01*
X0016374Y0540800D01*
X0016283Y0540923D01*
X0016195Y0541049D01*
X0016111Y0541177D01*
X0016029Y0541307D01*
X0015952Y0541439D01*
X0015877Y0541573D01*
X0015806Y0541709D01*
X0015739Y0541847D01*
X0015675Y0541987D01*
X0015615Y0542128D01*
X0015559Y0542270D01*
X0015506Y0542414D01*
X0015457Y0542560D01*
X0015412Y0542706D01*
X0015371Y0542854D01*
X0015334Y0543002D01*
X0015300Y0543152D01*
X0015270Y0543303D01*
X0015245Y0543454D01*
X0015223Y0543605D01*
X0015205Y0543758D01*
X0015191Y0543910D01*
X0015181Y0544063D01*
X0015175Y0544217D01*
X0015173Y0544370D01*
D11*
X0003362Y0067992D02*
X0289189Y0067992D01*
X0289189Y0006969D01*
X0289182Y0006887D01*
X0289178Y0006805D01*
X0289179Y0006722D01*
X0289183Y0006640D01*
X0289191Y0006558D01*
X0289203Y0006476D01*
X0289218Y0006396D01*
X0289237Y0006315D01*
X0289260Y0006236D01*
X0289287Y0006158D01*
X0289317Y0006082D01*
X0289351Y0006007D01*
X0289388Y0005933D01*
X0289428Y0005861D01*
X0289472Y0005791D01*
X0289519Y0005724D01*
X0289569Y0005658D01*
X0289622Y0005595D01*
X0289677Y0005534D01*
X0289736Y0005476D01*
X0289797Y0005421D01*
X0289861Y0005369D01*
X0289927Y0005320D01*
X0289995Y0005273D01*
X0290065Y0005230D01*
X0290137Y0005191D01*
X0290211Y0005154D01*
X0290287Y0005121D01*
X0290364Y0005092D01*
X0290442Y0005066D01*
X0290521Y0005044D01*
X0290601Y0005026D01*
X0290682Y0005011D01*
X0290764Y0005000D01*
X0584071Y0005000D01*
X0584157Y0005002D01*
X0584243Y0005007D01*
X0584328Y0005017D01*
X0584413Y0005030D01*
X0584497Y0005047D01*
X0584581Y0005067D01*
X0584663Y0005091D01*
X0584744Y0005119D01*
X0584825Y0005150D01*
X0584903Y0005184D01*
X0584980Y0005222D01*
X0585056Y0005264D01*
X0585129Y0005308D01*
X0585200Y0005356D01*
X0585270Y0005407D01*
X0585337Y0005461D01*
X0585401Y0005517D01*
X0585463Y0005577D01*
X0585523Y0005639D01*
X0585579Y0005703D01*
X0585633Y0005770D01*
X0585684Y0005840D01*
X0585732Y0005911D01*
X0585776Y0005984D01*
X0585818Y0006060D01*
X0585856Y0006137D01*
X0585890Y0006215D01*
X0585921Y0006296D01*
X0585949Y0006377D01*
X0585973Y0006459D01*
X0585993Y0006543D01*
X0586010Y0006627D01*
X0586023Y0006712D01*
X0586033Y0006797D01*
X0586038Y0006883D01*
X0586040Y0006969D01*
X0586039Y0006969D02*
X0586039Y0067992D01*
X0615567Y0067992D01*
X0615653Y0067994D01*
X0615739Y0067999D01*
X0615824Y0068009D01*
X0615909Y0068022D01*
X0615993Y0068039D01*
X0616077Y0068059D01*
X0616159Y0068083D01*
X0616240Y0068111D01*
X0616321Y0068142D01*
X0616399Y0068176D01*
X0616476Y0068214D01*
X0616552Y0068256D01*
X0616625Y0068300D01*
X0616696Y0068348D01*
X0616766Y0068399D01*
X0616833Y0068453D01*
X0616897Y0068509D01*
X0616959Y0068569D01*
X0617019Y0068631D01*
X0617075Y0068695D01*
X0617129Y0068762D01*
X0617180Y0068832D01*
X0617228Y0068903D01*
X0617272Y0068977D01*
X0617314Y0069052D01*
X0617352Y0069129D01*
X0617386Y0069207D01*
X0617417Y0069288D01*
X0617445Y0069369D01*
X0617469Y0069451D01*
X0617489Y0069535D01*
X0617506Y0069619D01*
X0617519Y0069704D01*
X0617529Y0069789D01*
X0617534Y0069875D01*
X0617536Y0069961D01*
X0617535Y0069961D02*
X0617535Y0562087D01*
X0617536Y0562087D02*
X0617534Y0562173D01*
X0617529Y0562259D01*
X0617519Y0562344D01*
X0617506Y0562429D01*
X0617489Y0562513D01*
X0617469Y0562597D01*
X0617445Y0562679D01*
X0617417Y0562760D01*
X0617386Y0562841D01*
X0617352Y0562919D01*
X0617314Y0562996D01*
X0617272Y0563072D01*
X0617228Y0563145D01*
X0617180Y0563216D01*
X0617129Y0563286D01*
X0617075Y0563353D01*
X0617019Y0563417D01*
X0616959Y0563479D01*
X0616897Y0563539D01*
X0616833Y0563595D01*
X0616766Y0563649D01*
X0616696Y0563700D01*
X0616625Y0563748D01*
X0616552Y0563792D01*
X0616476Y0563834D01*
X0616399Y0563872D01*
X0616321Y0563906D01*
X0616240Y0563937D01*
X0616159Y0563965D01*
X0616077Y0563989D01*
X0615993Y0564009D01*
X0615909Y0564026D01*
X0615824Y0564039D01*
X0615739Y0564049D01*
X0615653Y0564054D01*
X0615567Y0564056D01*
X0615567Y0564055D02*
X0003362Y0564055D01*
X0003362Y0564056D02*
X0003276Y0564054D01*
X0003190Y0564049D01*
X0003105Y0564039D01*
X0003020Y0564026D01*
X0002936Y0564009D01*
X0002852Y0563989D01*
X0002770Y0563965D01*
X0002689Y0563937D01*
X0002608Y0563906D01*
X0002530Y0563872D01*
X0002453Y0563834D01*
X0002378Y0563792D01*
X0002304Y0563748D01*
X0002233Y0563700D01*
X0002163Y0563649D01*
X0002096Y0563595D01*
X0002032Y0563539D01*
X0001970Y0563479D01*
X0001910Y0563417D01*
X0001854Y0563353D01*
X0001800Y0563286D01*
X0001749Y0563216D01*
X0001701Y0563145D01*
X0001657Y0563072D01*
X0001615Y0562996D01*
X0001577Y0562919D01*
X0001543Y0562841D01*
X0001512Y0562760D01*
X0001484Y0562679D01*
X0001460Y0562597D01*
X0001440Y0562513D01*
X0001423Y0562429D01*
X0001410Y0562344D01*
X0001400Y0562259D01*
X0001395Y0562173D01*
X0001393Y0562087D01*
X0001394Y0562087D02*
X0001394Y0069961D01*
X0001393Y0069961D02*
X0001395Y0069875D01*
X0001400Y0069789D01*
X0001410Y0069704D01*
X0001423Y0069619D01*
X0001440Y0069535D01*
X0001460Y0069451D01*
X0001484Y0069369D01*
X0001512Y0069288D01*
X0001543Y0069207D01*
X0001577Y0069129D01*
X0001615Y0069052D01*
X0001657Y0068977D01*
X0001701Y0068903D01*
X0001749Y0068832D01*
X0001800Y0068762D01*
X0001854Y0068695D01*
X0001910Y0068631D01*
X0001970Y0068569D01*
X0002032Y0068509D01*
X0002096Y0068453D01*
X0002163Y0068399D01*
X0002233Y0068348D01*
X0002304Y0068300D01*
X0002377Y0068256D01*
X0002453Y0068214D01*
X0002530Y0068176D01*
X0002608Y0068142D01*
X0002689Y0068111D01*
X0002770Y0068083D01*
X0002852Y0068059D01*
X0002936Y0068039D01*
X0003020Y0068022D01*
X0003105Y0068009D01*
X0003190Y0067999D01*
X0003276Y0067994D01*
X0003362Y0067992D01*
M02*
