%
M48
M72
T01C0.0236
T02C0.0300
T03C0.1181
T04C0.1575
%
T01
X26683Y9949
X26683Y12114
X59785Y12114
X59785Y9949
T02
X59446Y15323
X59446Y16323
X60446Y16323
X60446Y15323
X58478Y15323
X58478Y16323
X58478Y17323
X59446Y17323
X60446Y17323
X60446Y18323
X59446Y18323
X58478Y18323
X58478Y19323
X58478Y20323
X59446Y20323
X59446Y19323
X60446Y19323
X60446Y20323
X60446Y21323
X59446Y21323
X58478Y21323
X58478Y22323
X59446Y22323
X60446Y22323
X60446Y23323
X59446Y23323
X58478Y23323
X58478Y24323
X58478Y25323
X59446Y25323
X59446Y24323
X60446Y24323
X60446Y25323
X60446Y26323
X59446Y26323
X58478Y26323
X58478Y27323
X59446Y27323
X60446Y27323
X60446Y28323
X59446Y28323
X59446Y29323
X60446Y29323
X60446Y30323
X59446Y30323
X58478Y30323
X58478Y31323
X59446Y31323
X60446Y31323
X60446Y32323
X59446Y32323
X59446Y33323
X60446Y33323
X60446Y34323
X59446Y34323
X58478Y34323
X58478Y35323
X59446Y35323
X60446Y35323
X60446Y36323
X59446Y36323
X58478Y36323
X58478Y37323
X58478Y38323
X59446Y38323
X59446Y37323
X60446Y37323
X60446Y38323
X60446Y39323
X59446Y39323
X58478Y39323
X58478Y40323
X59446Y40323
X60446Y40323
X60446Y41323
X59446Y41323
X59446Y42323
X60446Y42323
X60446Y43323
X59446Y43323
X58478Y43323
X58478Y44323
X59446Y44323
X60446Y44323
X60446Y45323
X59446Y45323
X59446Y46323
X60446Y46323
X60446Y47323
X59446Y47323
X58478Y47323
X58478Y48323
X59446Y48323
X60446Y48323
X58478Y46323
X58478Y45323
X57478Y45323
X57478Y46323
X56478Y46323
X56478Y45323
X55478Y45323
X55478Y46323
X54478Y46323
X54478Y45323
X54478Y44323
X55478Y44323
X56478Y44323
X57478Y44323
X57478Y43323
X56478Y43323
X55478Y43323
X54478Y43323
X54478Y42323
X55478Y42323
X55478Y41323
X54478Y41323
X54478Y40323
X55478Y40323
X56478Y40323
X57478Y40323
X57478Y41323
X57478Y42323
X56478Y42323
X56478Y41323
X58478Y41323
X58478Y42323
X57478Y39323
X56478Y39323
X55478Y39323
X54478Y39323
X54478Y38323
X55478Y38323
X55478Y37323
X54478Y37323
X54478Y36323
X55478Y36323
X56478Y36323
X57478Y36323
X57478Y37323
X57478Y38323
X56478Y38323
X56478Y37323
X56478Y35323
X57478Y35323
X57478Y34323
X56478Y34323
X55478Y34323
X54478Y34323
X54478Y35323
X55478Y35323
X55478Y33323
X54478Y33323
X54478Y32323
X55478Y32323
X56478Y32323
X56478Y33323
X57478Y33323
X57478Y32323
X58478Y32323
X58478Y33323
X57478Y31323
X56478Y31323
X55478Y31323
X54478Y31323
X54478Y30323
X55478Y30323
X56478Y30323
X57478Y30323
X57478Y29323
X56478Y29323
X56478Y28323
X57478Y28323
X58478Y28323
X58478Y29323
X57478Y27323
X56478Y27323
X55478Y27323
X54478Y27323
X54478Y28323
X54478Y29323
X55478Y29323
X55478Y28323
X55478Y26323
X54478Y26323
X54478Y25323
X55478Y25323
X55478Y24323
X54478Y24323
X54478Y23323
X55478Y23323
X56478Y23323
X57478Y23323
X57478Y24323
X57478Y25323
X56478Y25323
X56478Y24323
X56478Y26323
X57478Y26323
X57478Y22323
X56478Y22323
X55478Y22323
X54478Y22323
X54478Y21323
X55478Y21323
X56478Y21323
X57478Y21323
X57478Y20323
X56478Y20323
X56478Y19323
X57478Y19323
X57478Y18323
X56478Y18323
X55478Y18323
X54478Y18323
X54478Y19323
X54478Y20323
X55478Y20323
X55478Y19323
X55478Y17323
X54478Y17323
X54478Y16323
X55478Y16323
X55478Y15323
X54478Y15323
X56478Y15323
X56478Y16323
X57478Y16323
X57478Y15323
X57478Y17323
X56478Y17323
X51478Y17323
X51478Y18323
X51478Y19323
X51478Y20323
X51478Y21323
X51478Y22323
X51478Y23323
X51478Y24323
X51478Y25323
X51478Y26323
X51478Y27323
X51478Y28323
X51478Y29323
X51478Y30323
X51478Y31323
X51478Y32323
X51478Y33323
X51478Y34323
X51478Y35323
X51478Y36323
X51478Y37323
X51478Y38323
X51478Y39323
X51478Y40323
X51478Y41323
X51478Y42323
X51478Y43323
X51478Y44323
X51478Y45323
X51478Y46323
X51478Y47323
X51478Y48323
X51478Y49323
X51478Y50323
X51478Y51323
X51478Y52323
X51478Y53323
X50478Y53323
X49478Y53323
X48478Y53323
X47478Y53323
X46478Y53323
X45478Y53323
X44478Y53323
X43478Y53323
X42478Y53323
X41478Y53323
X40478Y53323
X39478Y53323
X38478Y53323
X37478Y53323
X36478Y53323
X35478Y53323
X34478Y53323
X33478Y53323
X33478Y52323
X34478Y52323
X35478Y52323
X36478Y52323
X37478Y52323
X38478Y52323
X39478Y52323
X40478Y52323
X41478Y52323
X42478Y52323
X43478Y52323
X44478Y52323
X45478Y52323
X46478Y52323
X47478Y52323
X48478Y52323
X49478Y52323
X50478Y52323
X50478Y51323
X49478Y51323
X48478Y51323
X47478Y51323
X46478Y51323
X45478Y51323
X44478Y51323
X43478Y51323
X42478Y51323
X41478Y51323
X40478Y51323
X39478Y51323
X38478Y51323
X37478Y51323
X36478Y51323
X35478Y51323
X34478Y51323
X33478Y51323
X33478Y50323
X34478Y50323
X34478Y49323
X33478Y49323
X33478Y48323
X34478Y48323
X35478Y48323
X36478Y48323
X36478Y49323
X36478Y50323
X35478Y50323
X35478Y49323
X37478Y49323
X37478Y50323
X38478Y50323
X39478Y50323
X39478Y49323
X38478Y49323
X38478Y48323
X39478Y48323
X40478Y48323
X40478Y49323
X40478Y50323
X41478Y50323
X42478Y50323
X42478Y49323
X41478Y49323
X41478Y48323
X42478Y48323
X43478Y48323
X44478Y48323
X44478Y49323
X44478Y50323
X43478Y50323
X43478Y49323
X45478Y49323
X45478Y50323
X46478Y50323
X47478Y50323
X47478Y49323
X46478Y49323
X46478Y48323
X47478Y48323
X48478Y48323
X49478Y48323
X49478Y49323
X49478Y50323
X48478Y50323
X48478Y49323
X50478Y49323
X50478Y50323
X50478Y48323
X50478Y47323
X49478Y47323
X48478Y47323
X47478Y47323
X46478Y47323
X45478Y47323
X45478Y48323
X44478Y47323
X43478Y47323
X42478Y47323
X41478Y47323
X40478Y47323
X39478Y47323
X38478Y47323
X37478Y47323
X37478Y48323
X36478Y47323
X35478Y47323
X34478Y47323
X33478Y47323
X33478Y46323
X34478Y46323
X34478Y45323
X33478Y45323
X33478Y44323
X34478Y44323
X35478Y44323
X36478Y44323
X36478Y45323
X36478Y46323
X35478Y46323
X35478Y45323
X37478Y45323
X37478Y46323
X38478Y46323
X39478Y46323
X39478Y45323
X38478Y45323
X38478Y44323
X39478Y44323
X40478Y44323
X40478Y45323
X40478Y46323
X41478Y46323
X42478Y46323
X42478Y45323
X41478Y45323
X41478Y44323
X42478Y44323
X43478Y44323
X44478Y44323
X44478Y45323
X44478Y46323
X43478Y46323
X43478Y45323
X45478Y45323
X45478Y46323
X46478Y46323
X47478Y46323
X47478Y45323
X46478Y45323
X46478Y44323
X47478Y44323
X48478Y44323
X49478Y44323
X49478Y45323
X49478Y46323
X48478Y46323
X48478Y45323
X50478Y45323
X50478Y46323
X50478Y44323
X50478Y43323
X49478Y43323
X48478Y43323
X47478Y43323
X46478Y43323
X45478Y43323
X45478Y44323
X44478Y43323
X43478Y43323
X42478Y43323
X41478Y43323
X40478Y43323
X39478Y43323
X38478Y43323
X37478Y43323
X37478Y44323
X36478Y43323
X35478Y43323
X34478Y43323
X33478Y43323
X33478Y42323
X34478Y42323
X34478Y41323
X33478Y41323
X33478Y40323
X34478Y40323
X35478Y40323
X36478Y40323
X36478Y41323
X36478Y42323
X35478Y42323
X35478Y41323
X37478Y41323
X37478Y42323
X38478Y42323
X39478Y42323
X39478Y41323
X38478Y41323
X38478Y40323
X39478Y40323
X40478Y40323
X40478Y41323
X40478Y42323
X41478Y42323
X42478Y42323
X42478Y41323
X41478Y41323
X41478Y40323
X42478Y40323
X43478Y40323
X44478Y40323
X44478Y41323
X44478Y42323
X43478Y42323
X43478Y41323
X45478Y41323
X45478Y42323
X46478Y42323
X47478Y42323
X47478Y41323
X46478Y41323
X46478Y40323
X47478Y40323
X48478Y40323
X49478Y40323
X49478Y41323
X49478Y42323
X48478Y42323
X48478Y41323
X50478Y41323
X50478Y42323
X50478Y40323
X50478Y39323
X49478Y39323
X48478Y39323
X47478Y39323
X46478Y39323
X45478Y39323
X45478Y40323
X44478Y39323
X43478Y39323
X42478Y39323
X41478Y39323
X40478Y39323
X39478Y39323
X38478Y39323
X37478Y39323
X37478Y40323
X36478Y39323
X35478Y39323
X34478Y39323
X33478Y39323
X33478Y38323
X34478Y38323
X34478Y37323
X33478Y37323
X33478Y36323
X34478Y36323
X35478Y36323
X36478Y36323
X36478Y37323
X36478Y38323
X35478Y38323
X35478Y37323
X37478Y37323
X37478Y38323
X38478Y38323
X39478Y38323
X39478Y37323
X38478Y37323
X38478Y36323
X39478Y36323
X40478Y36323
X40478Y37323
X40478Y38323
X41478Y38323
X42478Y38323
X42478Y37323
X41478Y37323
X41478Y36323
X42478Y36323
X43478Y36323
X44478Y36323
X44478Y37323
X44478Y38323
X43478Y38323
X43478Y37323
X45478Y37323
X45478Y38323
X46478Y38323
X47478Y38323
X47478Y37323
X46478Y37323
X46478Y36323
X47478Y36323
X48478Y36323
X49478Y36323
X49478Y37323
X49478Y38323
X48478Y38323
X48478Y37323
X50478Y37323
X50478Y38323
X50478Y36323
X50478Y35323
X49478Y35323
X48478Y35323
X47478Y35323
X46478Y35323
X45478Y35323
X45478Y36323
X44478Y35323
X43478Y35323
X42478Y35323
X41478Y35323
X40478Y35323
X39478Y35323
X38478Y35323
X37478Y35323
X37478Y36323
X36478Y35323
X35478Y35323
X34478Y35323
X33478Y35323
X33478Y34323
X34478Y34323
X35478Y34323
X36478Y34323
X37478Y34323
X38478Y34323
X39478Y34323
X40478Y34323
X41478Y34323
X42478Y34323
X43478Y34323
X44478Y34323
X45478Y34323
X46478Y34323
X47478Y34323
X48478Y34323
X49478Y34323
X50478Y34323
X50478Y33323
X50478Y32323
X49478Y32323
X49478Y33323
X48478Y33323
X48478Y32323
X47478Y32323
X47478Y33323
X46478Y33323
X46478Y32323
X45478Y32323
X45478Y33323
X44478Y33323
X43478Y33323
X43478Y32323
X44478Y32323
X44478Y31323
X43478Y31323
X42478Y31323
X41478Y31323
X41478Y32323
X41478Y33323
X42478Y33323
X42478Y32323
X40478Y32323
X40478Y33323
X39478Y33323
X38478Y33323
X38478Y32323
X39478Y32323
X39478Y31323
X38478Y31323
X37478Y31323
X37478Y32323
X37478Y33323
X36478Y33323
X35478Y33323
X35478Y32323
X36478Y32323
X36478Y31323
X35478Y31323
X34478Y31323
X33478Y31323
X33478Y32323
X33478Y33323
X34478Y33323
X34478Y32323
X32443Y32323
X32443Y33323
X32443Y34323
X32443Y35323
X32443Y36323
X32443Y37323
X32443Y38323
X32443Y39323
X32443Y40323
X32443Y41323
X32443Y42323
X32443Y43323
X32443Y44323
X32443Y45323
X32443Y46323
X32443Y47323
X32443Y48323
X32443Y49323
X32443Y50323
X32443Y51323
X32443Y52323
X32443Y53323
X31443Y53323
X30443Y53323
X30443Y52323
X31443Y52323
X31443Y51323
X30443Y51323
X30443Y50323
X31443Y50323
X31443Y49323
X30443Y49323
X30443Y48323
X31443Y48323
X31443Y47323
X30443Y47323
X30443Y46323
X31443Y46323
X31443Y45323
X30443Y45323
X30443Y44323
X31443Y44323
X31443Y43323
X30443Y43323
X30443Y42323
X31443Y42323
X31443Y41323
X30443Y41323
X30443Y40323
X31443Y40323
X31443Y39323
X30443Y39323
X30443Y38323
X31443Y38323
X31443Y37323
X30443Y37323
X30443Y36323
X31443Y36323
X31443Y35323
X30443Y35323
X30443Y34323
X31443Y34323
X31443Y33323
X31443Y32323
X30443Y32323
X30443Y33323
X29443Y33323
X29443Y32323
X29443Y31323
X30443Y31323
X31443Y31323
X32443Y31323
X32443Y30323
X32443Y29323
X32443Y28323
X32443Y27323
X32443Y26323
X32443Y25323
X32443Y24323
X32443Y23323
X32443Y22323
X32443Y21323
X32443Y20323
X32443Y19323
X32443Y18323
X32443Y17323
X32443Y16323
X32443Y15323
X32443Y14323
X32443Y13323
X32443Y12339
X31443Y12339
X30443Y12339
X30443Y13323
X31443Y13323
X31443Y14323
X30443Y14323
X30443Y15323
X31443Y15323
X31443Y16323
X30443Y16323
X30443Y17323
X31443Y17323
X31443Y18323
X30443Y18323
X30443Y19323
X31443Y19323
X31443Y20323
X30443Y20323
X30443Y21323
X31443Y21323
X31443Y22323
X30443Y22323
X30443Y23323
X31443Y23323
X31443Y24323
X31443Y25323
X30443Y25323
X30443Y24323
X29443Y24323
X29443Y25323
X29443Y26323
X30443Y26323
X31443Y26323
X31443Y27323
X30443Y27323
X30443Y28323
X31443Y28323
X31443Y29323
X30443Y29323
X30443Y30323
X31443Y30323
X29443Y30323
X29443Y29323
X29443Y28323
X29443Y27323
X26478Y27323
X25478Y27323
X25478Y28323
X25478Y29323
X26478Y29323
X26478Y28323
X26478Y30323
X25478Y30323
X25478Y31323
X26478Y31323
X26478Y32323
X26478Y33323
X25478Y33323
X25478Y32323
X24478Y32323
X24478Y33323
X24478Y34323
X24478Y35323
X24478Y36323
X24478Y37323
X24478Y38323
X24478Y39323
X24478Y40323
X24478Y41323
X24478Y42323
X24478Y43323
X24478Y44323
X24478Y45323
X24478Y46323
X24478Y47323
X24478Y48323
X24478Y49323
X24478Y50323
X24478Y51323
X24478Y52323
X24478Y53323
X25478Y53323
X26478Y53323
X26478Y52323
X25478Y52323
X25478Y51323
X26478Y51323
X26478Y50323
X25478Y50323
X25478Y49323
X26478Y49323
X26478Y48323
X25478Y48323
X25478Y47323
X26478Y47323
X26478Y46323
X25478Y46323
X25478Y45323
X26478Y45323
X26478Y44323
X25478Y44323
X25478Y43323
X26478Y43323
X26478Y42323
X25478Y42323
X25478Y41323
X26478Y41323
X26478Y40323
X25478Y40323
X25478Y39323
X26478Y39323
X26478Y38323
X25478Y38323
X25478Y37323
X26478Y37323
X26478Y36323
X25478Y36323
X25478Y35323
X26478Y35323
X26478Y34323
X25478Y34323
X23478Y34323
X22478Y34323
X22478Y35323
X23478Y35323
X23478Y36323
X22478Y36323
X22478Y37323
X22478Y38323
X23478Y38323
X23478Y37323
X23478Y39323
X22478Y39323
X22478Y40323
X23478Y40323
X23478Y41323
X23478Y42323
X22478Y42323
X22478Y41323
X21478Y41323
X21478Y42323
X20478Y42323
X20478Y41323
X19478Y41323
X19478Y42323
X19478Y43323
X19478Y44323
X19478Y45323
X19478Y46323
X19478Y47323
X19478Y48323
X19478Y49323
X19478Y50323
X19478Y51323
X19478Y52323
X19478Y53323
X20478Y53323
X21478Y53323
X22478Y53323
X23478Y53323
X23478Y52323
X22478Y52323
X21478Y52323
X20478Y52323
X20478Y51323
X21478Y51323
X22478Y51323
X23478Y51323
X23478Y50323
X22478Y50323
X22478Y49323
X23478Y49323
X23478Y48323
X22478Y48323
X21478Y48323
X20478Y48323
X20478Y49323
X20478Y50323
X21478Y50323
X21478Y49323
X21478Y47323
X20478Y47323
X20478Y46323
X21478Y46323
X21478Y45323
X20478Y45323
X20478Y44323
X21478Y44323
X22478Y44323
X23478Y44323
X23478Y45323
X23478Y46323
X22478Y46323
X22478Y45323
X22478Y47323
X23478Y47323
X23478Y43323
X22478Y43323
X21478Y43323
X20478Y43323
X18478Y43323
X17478Y43323
X17478Y44323
X18478Y44323
X18478Y45323
X18478Y46323
X17478Y46323
X17478Y45323
X16478Y45323
X16478Y46323
X15478Y46323
X15478Y45323
X14478Y45323
X14478Y46323
X14478Y47323
X14478Y48323
X14478Y49323
X14478Y50323
X14478Y51323
X14478Y52323
X14478Y53323
X15478Y53323
X16478Y53323
X17478Y53323
X18478Y53323
X18478Y52323
X17478Y52323
X16478Y52323
X15478Y52323
X15478Y51323
X16478Y51323
X17478Y51323
X18478Y51323
X18478Y50323
X17478Y50323
X17478Y49323
X18478Y49323
X18478Y48323
X17478Y48323
X16478Y48323
X15478Y48323
X15478Y49323
X15478Y50323
X16478Y50323
X16478Y49323
X16478Y47323
X15478Y47323
X17478Y47323
X18478Y47323
X16478Y44323
X15478Y44323
X14478Y44323
X13478Y44323
X12478Y44323
X11490Y44323
X11490Y45323
X11490Y46323
X12478Y46323
X13478Y46323
X13478Y45323
X12478Y45323
X12478Y47323
X13478Y47323
X13478Y48323
X12478Y48323
X11490Y48323
X11490Y49323
X11490Y50323
X12478Y50323
X13478Y50323
X13478Y49323
X12478Y49323
X12478Y51323
X13478Y51323
X13478Y52323
X12478Y52323
X11490Y52323
X11490Y53323
X12478Y53323
X13478Y53323
X11490Y51323
X10490Y51323
X9490Y51323
X9490Y52323
X10490Y52323
X10490Y53323
X9490Y53323
X8490Y53323
X7490Y53323
X7490Y52323
X8490Y52323
X8490Y51323
X7490Y51323
X7490Y50323
X8490Y50323
X8490Y49323
X7490Y49323
X7490Y48323
X8490Y48323
X9490Y48323
X10490Y48323
X10490Y49323
X10490Y50323
X9490Y50323
X9490Y49323
X9490Y47323
X10490Y47323
X11490Y47323
X10490Y46323
X10490Y45323
X9490Y45323
X9490Y46323
X8490Y46323
X8490Y45323
X7490Y45323
X7490Y46323
X7490Y47323
X8490Y47323
X6490Y47323
X6490Y48323
X6490Y49323
X6490Y50323
X6490Y51323
X6490Y52323
X6490Y53323
X5490Y50323
X4521Y50323
X4521Y49323
X5490Y49323
X5490Y48323
X4521Y48323
X3521Y48323
X3521Y49323
X3521Y50323
X3521Y47323
X3521Y46323
X3521Y45323
X3521Y44323
X3521Y43323
X3521Y42323
X3521Y41323
X3521Y40323
X3521Y39323
X3521Y38323
X3521Y37323
X3521Y36323
X3521Y35323
X3521Y34323
X3521Y33323
X3521Y32323
X3521Y31323
X3521Y30323
X3521Y29323
X3521Y28323
X3521Y27323
X3521Y26323
X3521Y25323
X3521Y24323
X3521Y23323
X3521Y22323
X3521Y21323
X3521Y20323
X3521Y19323
X3521Y18323
X3521Y17323
X3521Y16323
X3521Y15323
X3521Y14323
X3521Y13323
X3521Y12323
X4521Y12323
X5490Y12323
X6490Y12323
X7490Y12323
X8490Y12323
X9490Y12323
X10490Y12323
X11490Y12323
X12478Y12323
X13478Y12323
X13478Y13323
X12478Y13323
X11490Y13323
X11490Y14323
X12478Y14323
X13478Y14323
X13478Y15323
X13478Y16323
X12478Y16323
X12478Y15323
X11490Y15323
X11490Y16323
X11490Y17323
X12478Y17323
X13478Y17323
X13478Y18323
X12478Y18323
X11490Y18323
X11490Y19323
X11490Y20323
X12478Y20323
X13478Y20323
X13478Y19323
X12478Y19323
X12478Y21323
X13478Y21323
X13478Y22323
X12478Y22323
X11490Y22323
X11490Y23323
X12478Y23323
X13478Y23323
X13478Y24323
X13478Y25323
X12478Y25323
X12478Y24323
X11490Y24323
X11490Y25323
X11490Y26323
X12478Y26323
X13478Y26323
X13478Y27323
X12478Y27323
X11490Y27323
X11490Y28323
X11490Y29323
X12478Y29323
X13478Y29323
X13478Y28323
X12478Y28323
X12478Y30323
X13478Y30323
X13478Y31323
X12478Y31323
X11490Y31323
X11490Y32323
X11490Y33323
X12478Y33323
X13478Y33323
X13478Y32323
X12478Y32323
X12478Y34323
X13478Y34323
X13478Y35323
X12478Y35323
X11490Y35323
X11490Y36323
X12478Y36323
X13478Y36323
X13478Y37323
X13478Y38323
X12478Y38323
X12478Y37323
X11490Y37323
X11490Y38323
X11490Y39323
X12478Y39323
X13478Y39323
X13478Y40323
X12478Y40323
X11490Y40323
X11490Y41323
X11490Y42323
X12478Y42323
X13478Y42323
X13478Y41323
X12478Y41323
X12478Y43323
X13478Y43323
X14478Y43323
X15478Y43323
X16478Y43323
X16478Y42323
X15478Y42323
X15478Y41323
X16478Y41323
X17478Y41323
X17478Y42323
X18478Y42323
X18478Y41323
X18478Y40323
X17478Y40323
X16478Y40323
X15478Y40323
X14478Y40323
X14478Y41323
X14478Y42323
X14478Y39323
X15478Y39323
X16478Y39323
X17478Y39323
X18478Y39323
X19478Y39323
X19478Y40323
X20478Y40323
X21478Y40323
X21478Y39323
X20478Y39323
X20478Y38323
X21478Y38323
X21478Y37323
X20478Y37323
X19478Y37323
X19478Y38323
X18478Y38323
X17478Y38323
X17478Y37323
X18478Y37323
X18478Y36323
X17478Y36323
X16478Y36323
X15478Y36323
X15478Y37323
X15478Y38323
X16478Y38323
X16478Y37323
X14478Y37323
X14478Y38323
X14478Y36323
X14478Y35323
X15478Y35323
X16478Y35323
X17478Y35323
X18478Y35323
X19478Y35323
X19478Y36323
X20478Y36323
X21478Y36323
X21478Y35323
X20478Y35323
X20478Y34323
X21478Y34323
X21478Y33323
X20478Y33323
X20478Y32323
X21478Y32323
X22478Y32323
X22478Y33323
X23478Y33323
X23478Y32323
X23478Y31323
X22478Y31323
X21478Y31323
X20478Y31323
X19478Y31323
X19478Y32323
X19478Y33323
X19478Y34323
X18478Y34323
X17478Y34323
X16478Y34323
X15478Y34323
X14478Y34323
X14478Y33323
X14478Y32323
X15478Y32323
X15478Y33323
X16478Y33323
X16478Y32323
X17478Y32323
X17478Y33323
X18478Y33323
X18478Y32323
X18478Y31323
X17478Y31323
X16478Y31323
X15478Y31323
X14478Y31323
X14478Y30323
X15478Y30323
X16478Y30323
X17478Y30323
X18478Y30323
X19478Y30323
X20478Y30323
X21478Y30323
X22478Y30323
X23478Y30323
X24478Y30323
X24478Y31323
X24478Y29323
X24478Y28323
X23478Y28323
X23478Y29323
X22478Y29323
X22478Y28323
X21478Y28323
X21478Y29323
X20478Y29323
X20478Y28323
X19478Y28323
X19478Y29323
X18478Y29323
X17478Y29323
X17478Y28323
X18478Y28323
X18478Y27323
X17478Y27323
X16478Y27323
X15478Y27323
X15478Y28323
X15478Y29323
X16478Y29323
X16478Y28323
X14478Y28323
X14478Y29323
X14478Y27323
X14478Y26323
X15478Y26323
X16478Y26323
X17478Y26323
X18478Y26323
X19478Y26323
X19478Y27323
X20478Y27323
X21478Y27323
X22478Y27323
X23478Y27323
X24478Y27323
X24478Y26323
X25478Y26323
X26478Y26323
X26478Y25323
X25478Y25323
X25478Y24323
X26478Y24323
X26478Y23323
X25478Y23323
X24478Y23323
X24478Y24323
X24478Y25323
X23478Y25323
X22478Y25323
X22478Y24323
X23478Y24323
X23478Y23323
X22478Y23323
X21478Y23323
X20478Y23323
X20478Y24323
X20478Y25323
X21478Y25323
X21478Y24323
X21478Y26323
X20478Y26323
X19478Y25323
X19478Y24323
X18478Y24323
X18478Y25323
X17478Y25323
X17478Y24323
X16478Y24323
X16478Y25323
X15478Y25323
X15478Y24323
X14478Y24323
X14478Y25323
X14478Y23323
X15478Y23323
X16478Y23323
X17478Y23323
X18478Y23323
X19478Y23323
X19478Y22323
X20478Y22323
X21478Y22323
X22478Y22323
X23478Y22323
X24478Y22323
X25478Y22323
X26478Y22323
X26478Y21323
X25478Y21323
X24478Y21323
X23478Y21323
X22478Y21323
X21478Y21323
X20478Y21323
X19478Y21323
X18478Y21323
X17478Y21323
X17478Y22323
X18478Y22323
X16478Y22323
X15478Y22323
X14478Y22323
X14478Y21323
X15478Y21323
X16478Y21323
X16478Y20323
X15478Y20323
X15478Y19323
X16478Y19323
X17478Y19323
X17478Y20323
X18478Y20323
X18478Y19323
X19478Y19323
X19478Y20323
X20478Y20323
X21478Y20323
X21478Y19323
X20478Y19323
X20478Y18323
X21478Y18323
X22478Y18323
X23478Y18323
X23478Y19323
X23478Y20323
X22478Y20323
X22478Y19323
X24478Y19323
X24478Y20323
X25478Y20323
X26478Y20323
X26478Y19323
X25478Y19323
X25478Y18323
X26478Y18323
X26478Y17323
X25478Y17323
X24478Y17323
X24478Y18323
X23478Y17323
X22478Y17323
X21478Y17323
X20478Y17323
X19478Y17323
X19478Y18323
X18478Y18323
X17478Y18323
X16478Y18323
X15478Y18323
X14478Y18323
X14478Y19323
X14478Y20323
X14478Y17323
X15478Y17323
X16478Y17323
X17478Y17323
X18478Y17323
X18478Y16323
X17478Y16323
X17478Y15323
X18478Y15323
X19478Y15323
X19478Y16323
X20478Y16323
X21478Y16323
X21478Y15323
X20478Y15323
X20478Y14323
X21478Y14323
X22478Y14323
X23478Y14323
X23478Y15323
X23478Y16323
X22478Y16323
X22478Y15323
X24478Y15323
X24478Y16323
X25478Y16323
X26478Y16323
X26478Y15323
X25478Y15323
X25478Y14323
X26478Y14323
X26478Y13323
X25478Y13323
X24478Y13323
X24478Y14323
X23478Y13323
X22478Y13323
X21478Y13323
X20478Y13323
X19478Y13323
X19478Y14323
X18478Y14323
X17478Y14323
X16478Y14323
X15478Y14323
X15478Y15323
X15478Y16323
X16478Y16323
X16478Y15323
X14478Y15323
X14478Y16323
X14478Y14323
X14478Y13323
X15478Y13323
X16478Y13323
X17478Y13323
X18478Y13323
X18478Y12323
X17478Y12323
X16478Y12323
X15478Y12323
X14478Y12323
X10490Y13323
X9490Y13323
X9490Y14323
X10490Y14323
X10490Y15323
X10490Y16323
X9490Y16323
X9490Y15323
X8490Y15323
X8490Y16323
X7490Y16323
X7490Y15323
X7490Y14323
X8490Y14323
X8490Y13323
X7490Y13323
X6490Y13323
X6490Y14323
X6490Y15323
X6490Y16323
X6490Y17323
X7490Y17323
X8490Y17323
X9490Y17323
X10490Y17323
X10490Y18323
X9490Y18323
X9490Y19323
X10490Y19323
X10490Y20323
X9490Y20323
X9490Y21323
X10490Y21323
X11490Y21323
X10490Y22323
X9490Y22323
X9490Y23323
X10490Y23323
X10490Y24323
X10490Y25323
X9490Y25323
X9490Y24323
X8490Y24323
X8490Y25323
X7490Y25323
X7490Y24323
X7490Y23323
X8490Y23323
X8490Y22323
X7490Y22323
X7490Y21323
X8490Y21323
X8490Y20323
X8490Y19323
X7490Y19323
X7490Y20323
X6490Y20323
X6490Y19323
X6490Y18323
X7490Y18323
X8490Y18323
X5490Y18323
X4521Y18323
X4521Y19323
X5490Y19323
X5490Y20323
X4521Y20323
X4521Y21323
X5490Y21323
X6490Y21323
X6490Y22323
X6490Y23323
X6490Y24323
X6490Y25323
X6490Y26323
X7490Y26323
X8490Y26323
X9490Y26323
X10490Y26323
X10490Y27323
X9490Y27323
X9490Y28323
X10490Y28323
X10490Y29323
X9490Y29323
X9490Y30323
X10490Y30323
X11490Y30323
X10490Y31323
X9490Y31323
X9490Y32323
X10490Y32323
X10490Y33323
X9490Y33323
X9490Y34323
X10490Y34323
X11490Y34323
X10490Y35323
X9490Y35323
X9490Y36323
X10490Y36323
X10490Y37323
X10490Y38323
X9490Y38323
X9490Y37323
X8490Y37323
X8490Y38323
X7490Y38323
X7490Y37323
X7490Y36323
X8490Y36323
X8490Y35323
X7490Y35323
X7490Y34323
X8490Y34323
X8490Y33323
X8490Y32323
X7490Y32323
X7490Y33323
X6490Y33323
X6490Y32323
X6490Y31323
X7490Y31323
X8490Y31323
X8490Y30323
X7490Y30323
X7490Y29323
X8490Y29323
X8490Y28323
X7490Y28323
X7490Y27323
X8490Y27323
X6490Y27323
X6490Y28323
X6490Y29323
X6490Y30323
X5490Y30323
X4521Y30323
X4521Y31323
X5490Y31323
X5490Y32323
X4521Y32323
X4521Y33323
X5490Y33323
X5490Y34323
X4521Y34323
X4521Y35323
X5490Y35323
X6490Y35323
X6490Y36323
X6490Y37323
X6490Y38323
X6490Y39323
X7490Y39323
X8490Y39323
X9490Y39323
X10490Y39323
X10490Y40323
X9490Y40323
X9490Y41323
X10490Y41323
X10490Y42323
X9490Y42323
X9490Y43323
X10490Y43323
X11490Y43323
X10490Y44323
X9490Y44323
X8490Y44323
X7490Y44323
X7490Y43323
X8490Y43323
X8490Y42323
X8490Y41323
X7490Y41323
X7490Y42323
X6490Y42323
X6490Y41323
X6490Y40323
X7490Y40323
X8490Y40323
X5490Y40323
X4521Y40323
X4521Y41323
X5490Y41323
X5490Y42323
X4521Y42323
X4521Y43323
X5490Y43323
X6490Y43323
X6490Y44323
X6490Y45323
X6490Y46323
X5490Y46323
X4521Y46323
X4521Y45323
X5490Y45323
X5490Y44323
X4521Y44323
X4521Y47323
X5490Y47323
X5490Y39323
X4521Y39323
X4521Y38323
X5490Y38323
X5490Y37323
X4521Y37323
X4521Y36323
X5490Y36323
X6490Y34323
X5490Y29323
X4521Y29323
X4521Y28323
X5490Y28323
X5490Y27323
X4521Y27323
X4521Y26323
X5490Y26323
X5490Y25323
X4521Y25323
X4521Y24323
X5490Y24323
X5490Y23323
X4521Y23323
X4521Y22323
X5490Y22323
X5490Y17323
X4521Y17323
X4521Y16323
X5490Y16323
X5490Y15323
X4521Y15323
X4521Y14323
X5490Y14323
X5490Y13323
X4521Y13323
X19478Y12323
X20478Y12323
X21478Y12323
X22462Y12323
X23446Y12323
X29443Y12339
X29443Y13323
X29443Y14323
X29443Y15323
X29443Y16323
X29443Y17323
X29443Y18323
X29443Y19323
X29443Y20323
X29443Y21323
X29443Y22323
X29443Y23323
X33478Y23323
X34478Y23323
X34478Y24323
X34478Y25323
X33478Y25323
X33478Y24323
X33478Y26323
X34478Y26323
X34478Y27323
X33478Y27323
X33478Y28323
X33478Y29323
X34478Y29323
X34478Y28323
X35478Y28323
X35478Y29323
X36478Y29323
X36478Y28323
X37478Y28323
X37478Y29323
X37478Y30323
X38478Y30323
X39478Y30323
X40478Y30323
X40478Y31323
X41478Y30323
X42478Y30323
X43478Y30323
X44478Y30323
X45478Y30323
X45478Y31323
X46478Y31323
X47478Y31323
X48478Y31323
X49478Y31323
X50478Y31323
X50478Y30323
X49478Y30323
X48478Y30323
X47478Y30323
X46478Y30323
X46478Y29323
X47478Y29323
X47478Y28323
X46478Y28323
X45478Y28323
X45478Y29323
X44478Y29323
X43478Y29323
X43478Y28323
X44478Y28323
X44478Y27323
X43478Y27323
X42478Y27323
X41478Y27323
X41478Y28323
X41478Y29323
X42478Y29323
X42478Y28323
X40478Y28323
X40478Y29323
X39478Y29323
X38478Y29323
X38478Y28323
X39478Y28323
X39478Y27323
X38478Y27323
X37478Y27323
X36478Y27323
X35478Y27323
X35478Y26323
X36478Y26323
X37478Y26323
X38478Y26323
X39478Y26323
X40478Y26323
X40478Y27323
X41478Y26323
X42478Y26323
X43478Y26323
X44478Y26323
X45478Y26323
X45478Y27323
X46478Y27323
X47478Y27323
X48478Y27323
X49478Y27323
X49478Y28323
X49478Y29323
X48478Y29323
X48478Y28323
X50478Y28323
X50478Y29323
X50478Y27323
X50478Y26323
X49478Y26323
X48478Y26323
X47478Y26323
X46478Y26323
X46478Y25323
X47478Y25323
X47478Y24323
X46478Y24323
X45478Y24323
X45478Y25323
X44478Y25323
X43478Y25323
X43478Y24323
X44478Y24323
X44478Y23323
X43478Y23323
X42478Y23323
X41478Y23323
X41478Y24323
X41478Y25323
X42478Y25323
X42478Y24323
X40478Y24323
X40478Y25323
X39478Y25323
X38478Y25323
X38478Y24323
X39478Y24323
X39478Y23323
X38478Y23323
X37478Y23323
X37478Y24323
X37478Y25323
X36478Y25323
X35478Y25323
X35478Y24323
X36478Y24323
X36478Y23323
X35478Y23323
X35478Y22323
X36478Y22323
X37478Y22323
X38478Y22323
X39478Y22323
X40478Y22323
X40478Y23323
X41478Y22323
X42478Y22323
X43478Y22323
X44478Y22323
X45478Y22323
X45478Y23323
X46478Y23323
X47478Y23323
X48478Y23323
X49478Y23323
X49478Y24323
X49478Y25323
X48478Y25323
X48478Y24323
X50478Y24323
X50478Y25323
X50478Y23323
X50478Y22323
X49478Y22323
X48478Y22323
X47478Y22323
X46478Y22323
X46478Y21323
X47478Y21323
X48478Y21323
X49478Y21323
X50478Y21323
X50478Y20323
X50478Y19323
X49478Y19323
X49478Y20323
X48478Y20323
X48478Y19323
X47478Y19323
X47478Y20323
X46478Y20323
X46478Y19323
X45478Y19323
X45478Y20323
X45478Y21323
X44478Y21323
X43478Y21323
X42478Y21323
X41478Y21323
X40478Y21323
X39478Y21323
X38478Y21323
X37478Y21323
X36478Y21323
X35478Y21323
X34478Y21323
X33478Y21323
X33478Y22323
X34478Y22323
X34478Y20323
X33478Y20323
X33478Y19323
X34478Y19323
X35478Y19323
X35478Y20323
X36478Y20323
X36478Y19323
X37478Y19323
X37478Y20323
X38478Y20323
X39478Y20323
X39478Y19323
X38478Y19323
X38478Y18323
X39478Y18323
X40478Y18323
X40478Y19323
X40478Y20323
X41478Y20323
X42478Y20323
X42478Y19323
X41478Y19323
X41478Y18323
X42478Y18323
X43478Y18323
X44478Y18323
X44478Y19323
X44478Y20323
X43478Y20323
X43478Y19323
X45478Y18323
X46478Y18323
X47478Y18323
X48478Y18323
X49478Y18323
X50478Y18323
X50478Y17323
X49478Y17323
X48478Y17323
X47478Y17323
X46478Y17323
X45478Y17323
X44478Y17323
X43478Y17323
X42478Y17323
X41478Y17323
X40478Y17323
X39478Y17323
X38478Y17323
X37478Y17323
X37478Y18323
X36478Y18323
X35478Y18323
X34478Y18323
X33478Y18323
X33478Y17323
X34478Y17323
X35478Y17323
X36478Y17323
X36478Y16323
X35478Y16323
X35478Y15323
X36478Y15323
X37478Y15323
X37478Y16323
X38478Y16323
X39478Y16323
X39478Y15323
X38478Y15323
X38478Y14323
X39478Y14323
X40478Y14323
X40478Y15323
X40478Y16323
X41478Y16323
X42478Y16323
X42478Y15323
X41478Y15323
X41478Y14323
X42478Y14323
X43478Y14323
X44478Y14323
X44478Y15323
X44478Y16323
X43478Y16323
X43478Y15323
X45478Y15323
X45478Y16323
X46478Y16323
X47478Y16323
X47478Y15323
X46478Y15323
X46478Y14323
X47478Y14323
X48478Y14323
X49478Y14323
X49478Y15323
X49478Y16323
X48478Y16323
X48478Y15323
X50478Y15323
X50478Y16323
X51478Y16323
X51478Y15323
X51478Y14323
X50478Y14323
X50478Y13323
X50478Y12339
X51478Y12339
X51478Y13323
X49478Y13323
X48478Y13323
X48478Y12339
X49478Y12339
X47478Y12339
X46478Y12339
X46478Y13323
X47478Y13323
X45478Y13323
X45478Y12339
X44478Y12339
X43478Y12339
X43478Y13323
X44478Y13323
X45478Y14323
X42478Y13323
X41478Y13323
X41478Y12339
X42478Y12339
X40478Y12339
X40478Y13323
X39478Y13323
X38478Y13323
X38478Y12339
X39478Y12339
X37478Y12339
X37478Y13323
X37478Y14323
X36478Y14323
X35478Y14323
X34478Y14323
X33478Y14323
X33478Y15323
X33478Y16323
X34478Y16323
X34478Y15323
X34478Y13323
X33478Y13323
X33478Y12339
X34478Y12339
X35478Y12339
X36478Y12339
X36478Y13323
X35478Y13323
X23478Y26323
X22478Y26323
X29443Y34323
X29443Y35323
X29443Y36323
X29443Y37323
X29443Y38323
X29443Y39323
X29443Y40323
X29443Y41323
X29443Y42323
X29443Y43323
X29443Y44323
X29443Y45323
X29443Y46323
X29443Y47323
X29443Y48323
X29443Y49323
X29443Y50323
X29443Y51323
X29443Y52323
X29443Y53323
X33478Y30323
X34478Y30323
X35478Y30323
X36478Y30323
X54478Y47323
X55478Y47323
X55478Y48323
X54478Y48323
X54478Y49323
X54478Y50323
X55478Y50323
X55478Y49323
X56478Y49323
X56478Y50323
X56446Y51323
X55478Y51323
X54478Y51323
X54478Y52323
X55478Y52323
X56446Y52323
X56446Y53323
X55478Y53323
X54478Y53323
X56478Y48323
X57478Y48323
X57478Y47323
X56478Y47323
T03
X59785Y54437
X2108Y54437
T04
X4529Y10539
X13486Y10539
X22541Y10539
X55927Y13689
X59076Y13689
M30
